<svg width="886" height="803" viewBox="0 0 886 803" fill="none" xmlns="http://www.w3.org/2000/svg">

<defs>
<linearGradient id="paint0_linear_3313_6350" x1="442.802" y1="-115.611" x2="442.802" y2="935.276" gradientUnits="userSpaceOnUse">
<stop stop-color="#CAF4FF"/>
<stop offset="1" stop-color="#255FA0"/>
</linearGradient>
<linearGradient id="paint1_linear_3313_6350" x1="531.642" y1="1215.4" x2="366.429" y2="249.11" gradientUnits="userSpaceOnUse">
<stop stop-color="#231F20"/>
<stop offset="1" stop-color="#231F20"/>
</linearGradient>
<linearGradient id="paint2_linear_3313_6350" x1="413.094" y1="800.941" x2="302.138" y2="564.683" gradientUnits="userSpaceOnUse">
<stop stop-color="white"/>
<stop offset="1" stop-color="#CBF4FF"/>
</linearGradient>
<linearGradient id="paint3_linear_3313_6350" x1="472.267" y1="800.949" x2="583.206" y2="564.693" gradientUnits="userSpaceOnUse">
<stop stop-color="white"/>
<stop offset="1" stop-color="#CBF4FF"/>
</linearGradient>
<linearGradient id="paint4_linear_3313_6350" x1="442.709" y1="356.854" x2="442.709" y2="414.345" gradientUnits="userSpaceOnUse">
<stop stop-color="#CBF4FF"/>
<stop offset="1" stop-color="white"/>
</linearGradient>
<linearGradient id="paint5_linear_3313_6350" x1="519.199" y1="537.696" x2="477.893" y2="224.639" gradientUnits="userSpaceOnUse">
<stop stop-color="white"/>
<stop offset="1" stop-color="#CBF4FF"/>
</linearGradient>
<linearGradient id="paint6_linear_3313_6350" x1="399.999" y1="307.857" x2="355.314" y2="567.806" gradientUnits="userSpaceOnUse">
<stop stop-color="#CBF4FF"/>
<stop offset="1" stop-color="white"/>
</linearGradient>
</defs>

<path d="M836.009 628.259L526.062 89.6779C480.282 10.1074 405.261 10.1074 359.527 89.6779L49.611 628.259C3.79954 707.86 41.2788 772.965 132.871 772.965L452.652 767.2L752.719 772.965C844.31 772.965 881.805 707.86 836.009 628.259Z" fill="url(#paint0_linear_3313_6350)"/>
<path style="mix-blend-mode:overlay" d="M746.714 473.191C684.223 486.43 663.826 611.138 608.072 567.181C482.733 468.359 478.954 583.791 347.885 584.273C256.51 584.615 220.626 496.747 122.932 500.771L49.5533 628.292C3.74192 707.894 41.2212 772.999 132.813 772.999H752.676C844.268 772.999 881.763 707.894 835.967 628.292L746.714 473.191Z" fill="url(#paint1_linear_3313_6350)"/>
<path d="M486.976 525.312L527.429 593.167L550.164 490.445L508.534 451.926C546.463 316.2 442.698 238.401 442.698 238.401C442.698 238.401 338.933 316.2 376.846 451.926L335.231 490.445L357.951 593.167L398.404 525.312C449.125 642.889 362.783 772.911 362.783 772.911H522.628C522.628 772.911 436.255 642.889 487.007 525.312H486.976ZM442.698 370.304C449.09 370.304 455.339 372.205 460.655 375.766C465.972 379.328 470.116 384.39 472.566 390.314C475.016 396.238 475.661 402.757 474.419 409.048C473.178 415.34 470.106 421.121 465.591 425.661C461.076 430.202 455.322 433.298 449.054 434.558C442.786 435.819 436.287 435.187 430.376 432.744C424.466 430.3 419.41 426.154 415.848 420.829C412.285 415.504 410.376 409.239 410.36 402.825C410.348 398.558 411.176 394.33 412.795 390.383C414.415 386.437 416.796 382.851 419.8 379.829C422.804 376.808 426.373 374.412 430.302 372.777C434.232 371.142 438.444 370.302 442.698 370.304Z" fill="white"/>
<path fill-rule="evenodd" clip-rule="evenodd" d="M289.289 772.934C405.01 759.385 417.607 542.118 396.034 522.991C397.27 523.701 398.893 525.55 400.775 528.422C400.106 526.909 399.379 525.653 398.599 524.678C399.712 526.021 400.807 527.86 401.863 530.149C419.487 559.158 455.869 667.775 420.854 772.934H362.752C362.75 772.937 362.748 772.94 362.745 772.943H289.289C289.315 772.94 289.34 772.937 289.366 772.934H289.289ZM397.569 523.582C397.922 523.895 398.265 524.261 398.599 524.678C398.257 524.265 397.914 523.9 397.569 523.582Z" fill="url(#paint2_linear_3313_6350)"/>
<path fill-rule="evenodd" clip-rule="evenodd" d="M489.149 522.437C488.798 522.749 488.455 523.113 488.122 523.529C488.463 523.118 488.806 522.753 489.149 522.437ZM529.809 733.734C477.357 668.067 472.904 542.518 488.122 523.529C486.759 525.171 485.416 527.559 484.13 530.606C485.355 526.883 486.825 524.179 488.51 522.686C476.011 529.864 428.878 653.775 468.494 772.936H522.605C522.61 772.943 522.615 772.949 522.62 772.955H596.076C596.023 772.949 595.97 772.943 595.917 772.936H596.203C568.537 769.697 546.711 754.797 529.809 733.734Z" fill="url(#paint3_linear_3313_6350)"/>
<path d="M407.723 395.591C407.733 401.234 409.11 406.79 411.734 411.781C410.875 408.86 410.437 405.831 410.433 402.785C410.368 398.099 411.315 393.454 413.21 389.171C415.104 384.887 417.901 381.066 421.408 377.971C424.915 374.875 429.049 372.579 433.525 371.239C438.001 369.9 442.714 369.549 447.338 370.212C451.962 370.874 456.388 372.533 460.312 375.076C464.236 377.618 467.564 380.983 470.068 384.94C472.571 388.896 474.191 393.35 474.815 397.994C475.439 402.638 475.053 407.363 473.684 411.843C476.135 407.127 477.486 401.913 477.635 396.595C477.783 391.278 476.725 385.996 474.54 381.15C472.355 376.303 469.101 372.017 465.023 368.618C460.945 365.218 456.151 362.792 451.001 361.524C445.852 360.256 440.483 360.179 435.3 361.299C430.116 362.418 425.254 364.705 421.081 367.986C416.908 371.268 413.533 375.458 411.211 380.24C408.889 385.022 407.68 390.271 407.677 395.591H407.723Z" fill="url(#paint4_linear_3313_6350)"/>
<path d="M550.22 490.444L508.59 451.926C546.519 316.2 442.754 238.401 442.754 238.401C504.3 297.446 514.956 411.076 477.755 459.306L531.403 514.264L527.485 593.167L550.22 490.444Z" fill="url(#paint5_linear_3313_6350)"/>
<path d="M335.231 490.444L376.861 451.926C338.933 316.2 442.698 238.401 442.698 238.401C381.151 297.446 370.496 411.076 407.712 459.306L354.049 514.264L357.967 593.167L335.231 490.444Z" fill="url(#paint6_linear_3313_6350)"/>
<path d="M848.992 620.779L848.991 620.777L539.044 82.1974C539.044 82.197 539.044 82.1965 539.043 82.196C514.555 39.634 480.178 15 442.758 15C405.335 15 370.968 39.6371 346.503 82.2031L36.5907 620.777C12.0864 663.355 8.01828 705.491 26.6941 737.944C45.3799 770.415 83.8223 787.965 132.851 787.965H752.699C801.728 787.965 840.173 770.415 858.865 737.946C877.547 705.494 873.489 663.359 848.992 620.779Z" stroke="white" stroke-width="30"/>

</svg>
