<svg width="562" height="512" viewBox="0 0 562 512" fill="none" xmlns="http://www.w3.org/2000/svg">
<defs>
<linearGradient id="paint0_linear_268_4526" x1="280.791" y1="-57.3883" x2="280.791" y2="580.503" gradientUnits="userSpaceOnUse">
<stop stop-color="#CAF4FF"/>
<stop offset="1" stop-color="#255FA0"/>
</linearGradient>
<linearGradient id="paint1_linear_268_4526" x1="334.717" y1="750.538" x2="234.432" y2="163.998" gradientUnits="userSpaceOnUse">
<stop stop-color="#231F20"/>
<stop offset="1" stop-color="#231F20"/>
</linearGradient>
<linearGradient id="paint2_linear_268_4526" x1="262.758" y1="498.962" x2="195.406" y2="355.553" gradientUnits="userSpaceOnUse">
<stop stop-color="white"/>
<stop offset="1" stop-color="#CBF4FF"/>
</linearGradient>
<linearGradient id="paint3_linear_268_4526" x1="298.676" y1="498.966" x2="366.016" y2="355.558" gradientUnits="userSpaceOnUse">
<stop stop-color="white"/>
<stop offset="1" stop-color="#CBF4FF"/>
</linearGradient>
<linearGradient id="paint4_linear_268_4526" x1="280.734" y1="229.399" x2="280.734" y2="264.296" gradientUnits="userSpaceOnUse">
<stop stop-color="#CBF4FF"/>
<stop offset="1" stop-color="white"/>
</linearGradient>
<linearGradient id="paint5_linear_268_4526" x1="327.164" y1="339.171" x2="302.091" y2="149.144" gradientUnits="userSpaceOnUse">
<stop stop-color="white"/>
<stop offset="1" stop-color="#CBF4FF"/>
</linearGradient>
<linearGradient id="paint6_linear_268_4526" x1="254.809" y1="199.658" x2="227.685" y2="357.448" gradientUnits="userSpaceOnUse">
<stop stop-color="#CBF4FF"/>
<stop offset="1" stop-color="white"/>
</linearGradient>
</defs>

<path d="M519.469 394.143L331.33 67.2227C303.541 18.9232 258.003 18.9232 230.243 67.2227L42.1228 394.143C14.3152 442.461 37.0652 481.98 92.6617 481.98L286.77 478.48L468.911 481.98C524.507 481.98 547.267 442.461 519.469 394.143Z" fill="url(#paint0_linear_268_4526)"/>
<path style="mix-blend-mode:overlay" d="M465.266 300.017C427.334 308.052 414.953 383.751 381.11 357.069C305.029 297.083 302.735 367.151 223.176 367.443C167.711 367.651 145.929 314.315 86.6288 316.758L42.0877 394.163C14.28 442.482 37.03 482 92.6265 482H468.885C524.482 482 547.241 442.482 519.443 394.163L465.266 300.017Z" fill="url(#paint1_linear_268_4526)"/>
<path d="M307.604 331.654L332.159 372.842L345.96 310.489L320.69 287.108C343.713 204.722 280.727 157.498 280.727 157.498C280.727 157.498 217.742 204.722 240.755 287.108L215.495 310.489L229.286 372.842L253.841 331.654C284.629 403.023 232.219 481.947 232.219 481.947H329.245C329.245 481.947 276.817 403.023 307.623 331.654H307.604ZM280.727 237.563C284.608 237.563 288.401 238.717 291.628 240.879C294.855 243.041 297.371 246.114 298.858 249.709C300.345 253.305 300.736 257.262 299.983 261.081C299.229 264.9 297.364 268.409 294.624 271.165C291.883 273.921 288.39 275.801 284.586 276.566C280.781 277.331 276.836 276.948 273.248 275.464C269.661 273.981 266.592 271.464 264.429 268.232C262.267 265 261.108 261.197 261.099 257.304C261.091 254.713 261.593 252.147 262.577 249.752C263.56 247.356 265.005 245.179 266.828 243.345C268.652 241.511 270.818 240.057 273.203 239.064C275.589 238.072 278.145 237.562 280.727 237.563Z" fill="white"/>
<path fill-rule="evenodd" clip-rule="evenodd" d="M187.607 481.961C257.85 473.737 265.497 341.855 252.402 330.245C253.152 330.676 254.137 331.799 255.28 333.542C254.874 332.624 254.433 331.861 253.959 331.269C254.635 332.085 255.299 333.201 255.94 334.59C266.638 352.2 288.722 418.13 267.467 481.961H232.2C232.199 481.963 232.197 481.965 232.196 481.967H187.608C187.624 481.965 187.64 481.963 187.656 481.961H187.607ZM253.334 330.605C253.548 330.794 253.756 331.016 253.959 331.269C253.751 331.019 253.543 330.797 253.334 330.605Z" fill="url(#paint2_linear_268_4526)"/>
<path fill-rule="evenodd" clip-rule="evenodd" d="M308.924 329.908C308.71 330.097 308.502 330.319 308.3 330.571C308.507 330.321 308.715 330.1 308.924 329.908ZM333.59 458.149C301.765 418.284 299.064 342.096 308.3 330.571C307.473 331.568 306.657 333.018 305.877 334.867C306.62 332.607 307.513 330.966 308.535 330.059C300.949 334.417 272.339 409.63 296.386 481.962H329.231C329.234 481.966 329.237 481.969 329.24 481.973H373.829C373.796 481.97 373.763 481.966 373.731 481.962H373.905C357.105 479.995 343.852 470.943 333.59 458.149Z" fill="url(#paint3_linear_268_4526)"/>
<path d="M259.498 252.912C259.504 256.338 260.34 259.711 261.933 262.74C261.411 260.967 261.145 259.128 261.143 257.279C261.103 254.435 261.678 251.616 262.828 249.016C263.978 246.415 265.676 244.096 267.805 242.217C269.933 240.338 272.443 238.944 275.16 238.131C277.877 237.318 280.737 237.105 283.544 237.507C286.351 237.909 289.038 238.917 291.419 240.46C293.801 242.003 295.821 244.046 297.341 246.447C298.861 248.849 299.844 251.552 300.223 254.371C300.602 257.19 300.367 260.058 299.536 262.778C301.024 259.915 301.844 256.75 301.934 253.522C302.024 250.295 301.382 247.089 300.056 244.147C298.73 241.205 296.754 238.604 294.279 236.54C291.804 234.476 288.894 233.004 285.768 232.234C282.642 231.465 279.383 231.418 276.237 232.097C273.091 232.777 270.139 234.165 267.606 236.157C265.073 238.148 263.025 240.692 261.615 243.595C260.205 246.497 259.472 249.684 259.47 252.912H259.498Z" fill="url(#paint4_linear_268_4526)"/>
<path d="M345.994 310.489L320.725 287.108C343.747 204.722 280.762 157.498 280.762 157.498C318.121 193.338 324.588 262.312 302.008 291.588L334.572 324.948L332.194 372.842L345.994 310.489Z" fill="url(#paint5_linear_268_4526)"/>
<path d="M215.495 310.489L240.765 287.108C217.742 204.722 280.727 157.498 280.727 157.498C243.369 193.338 236.901 262.312 259.491 291.588L226.917 324.948L229.296 372.842L215.495 310.489Z" fill="url(#paint6_linear_268_4526)"/>
<path d="M532.458 386.661L532.459 386.663C547.957 413.601 551.2 441.519 538.451 463.664C525.693 485.826 499.931 496.98 468.899 496.98H92.65C61.6188 496.98 35.8576 485.826 23.103 463.662C10.3586 441.516 13.6079 413.598 29.1099 386.661L532.458 386.661ZM532.458 386.661L344.32 59.7422C344.32 59.7418 344.319 59.7413 344.319 59.7408C328.827 32.8143 306.318 15.998 280.764 15.998C255.21 15.998 232.708 32.8147 217.23 59.7414C217.229 59.7436 217.227 59.7458 217.226 59.7479L29.1104 386.661L532.458 386.661Z" stroke="white" stroke-width="30"/>

</svg>
