<svg width="90" height="57" viewBox="0 0 90 57" fill="none" xmlns="http://www.w3.org/2000/svg">
<path d="M45 0C35.454 0 31.5 6.123 31.5 13.5C31.5 15.984 32.6895 18.4805 32.6895 18.4805C32.2125 18.7565 31.4192 19.6336 31.6172 21.1816C31.9862 24.0676 33.2391 24.7955 34.0371 24.8555C34.3401 27.5495 37.239 30.999 38.25 31.5V35.5254C36 42.2754 18 41.25 18 57H72C72 41.25 54 42.2754 51.75 35.5254V31.5C52.764 30.999 55.6599 27.5495 55.9629 24.8555C56.7609 24.7955 58.0138 24.0676 58.3828 21.1816C58.5808 19.6306 57.7875 18.7565 57.3105 18.4805C57.3105 18.4805 58.5 16.227 58.5 13.5C58.5 8.037 56.355 3.375 51.75 3.375C51.75 3.375 50.151 0 45 0ZM67.5 5.99414C65.964 5.99414 64.657 6.27197 63.457 6.66797C64.114 8.70497 64.5 10.977 64.5 13.5C64.5 15.096 64.2496 16.5592 63.9316 17.7832C64.3666 19.0702 64.5161 20.4855 64.3301 21.9375C63.9071 25.2405 62.6247 27.4854 61.0137 28.8984C60.5457 30.0324 59.9048 31.1068 59.2148 32.1328C60.0668 33.8818 61.314 35.4389 61.875 35.7539V35.7891C67.986 38.6541 78 43.47 78 57H90C90 42.126 75 44.2617 73.125 37.8867V35.748C73.968 35.274 76.3828 32.0167 76.6348 29.4727C77.2978 29.4157 78.3444 28.7309 78.6504 26.0039C78.8154 24.5399 78.1558 23.7161 77.7598 23.4551C77.7598 23.4551 78.75 21.321 78.75 18.75C78.75 13.59 76.962 9.1875 73.125 9.1875C73.125 9.1875 71.793 5.99414 67.5 5.99414ZM22.5 6C18.207 6 16.875 9.1875 16.875 9.1875C13.038 9.1875 11.25 13.5959 11.25 18.7559C11.25 21.3299 12.2402 23.4551 12.2402 23.4551C11.8412 23.7131 11.1846 24.5399 11.3496 26.0039C11.6556 28.7309 12.7022 29.4215 13.3652 29.4785C13.6172 32.0225 16.032 35.2799 16.875 35.7539V37.8867C15 44.2587 0 42.126 0 57H12C12 43.47 22.014 38.6571 28.125 35.7891V35.748C28.686 35.433 29.9332 33.8848 30.7852 32.1328C30.0952 31.1068 29.4543 30.0266 28.9863 28.8926C27.3753 27.4826 26.0899 25.2375 25.6699 21.9375C25.4809 20.4675 25.6361 19.0295 26.0801 17.7305C25.7561 16.4975 25.5 15.033 25.5 13.5C25.5 11.019 25.8512 8.73825 26.4902 6.65625C25.3052 6.26925 24.015 6 22.5 6Z" fill="#344356"/>
</svg>
