<svg width="49" height="49" viewBox="0 0 49 49" fill="none" xmlns="http://www.w3.org/2000/svg">
<path d="M41.4126 0.626953H7.58695C3.74305 0.626953 0.626953 3.74305 0.626953 7.58695V41.4126C0.626953 45.2565 3.74305 48.3726 7.58695 48.3726H41.4126C45.2565 48.3726 48.3726 45.2565 48.3726 41.4126V7.58695C48.3726 3.74305 45.2565 0.626953 41.4126 0.626953Z" fill="#242830"/>
<path d="M41.4126 2.71495C42.7047 2.71495 43.9439 3.22825 44.8576 4.14193C45.7713 5.05561 46.2846 6.29482 46.2846 7.58695V41.4126C46.2846 42.7047 45.7713 43.9439 44.8576 44.8576C43.9439 45.7713 42.7047 46.2846 41.4126 46.2846H7.58695C6.29482 46.2846 5.05561 45.7713 4.14193 44.8576C3.22825 43.9439 2.71495 42.7047 2.71495 41.4126V7.58695C2.71495 6.29482 3.22825 5.05561 4.14193 4.14193C5.05561 3.22825 6.29482 2.71495 7.58695 2.71495H41.4126ZM41.4126 0.626953H7.58695C5.74105 0.626953 3.97074 1.36024 2.66549 2.66549C1.36024 3.97074 0.626953 5.74105 0.626953 7.58695V41.4126C0.626953 43.2585 1.36024 45.0288 2.66549 46.334C3.97074 47.6393 5.74105 48.3726 7.58695 48.3726H41.4126C43.2585 48.3726 45.0288 47.6393 46.334 46.334C47.6393 45.0288 48.3726 43.2585 48.3726 41.4126V7.58695C48.3726 5.74105 47.6393 3.97074 46.334 2.66549C45.0288 1.36024 43.2585 0.626953 41.4126 0.626953Z" fill="#454B57"/>
<path d="M18.5494 42.3523C19.3309 42.3523 20.1047 42.1984 20.8267 41.8993C21.5487 41.6002 22.2047 41.1619 22.7573 40.6093C23.3099 40.0568 23.7482 39.4007 24.0473 38.6788C24.3463 37.9568 24.5002 37.183 24.5002 36.4015V30.4507H18.5494C17.768 30.4507 16.9941 30.6046 16.2722 30.9037C15.5502 31.2027 14.8942 31.6411 14.3416 32.1936C13.789 32.7462 13.3507 33.4022 13.0516 34.1242C12.7526 34.8462 12.5986 35.62 12.5986 36.4015C12.5986 37.183 12.7526 37.9568 13.0516 38.6788C13.3507 39.4007 13.789 40.0568 14.3416 40.6093C14.8942 41.1619 15.5502 41.6002 16.2722 41.8993C16.9941 42.1984 17.768 42.3523 18.5494 42.3523Z" fill="#0ACF83"/>
<path d="M12.5986 24.5001C12.5986 22.9219 13.2256 21.4083 14.3416 20.2923C15.4576 19.1763 16.9712 18.5493 18.5494 18.5493H24.5002V30.4509H18.5494C16.9712 30.4509 15.4576 29.824 14.3416 28.708C13.2256 27.592 12.5986 26.0784 12.5986 24.5001Z" fill="#A259FF"/>
<path d="M12.5986 12.5983C12.5986 11.02 13.2256 9.5064 14.3416 8.39041C15.4576 7.27442 16.9712 6.64746 18.5494 6.64746H24.5002V18.5491H18.5494C16.9712 18.5491 15.4576 17.9221 14.3416 16.8061C13.2256 15.6901 12.5986 14.1765 12.5986 12.5983Z" fill="#F24E1E"/>
<path d="M24.5 6.68262H30.4508C32.0291 6.68262 33.5427 7.30957 34.6587 8.42557C35.7746 9.54156 36.4016 11.0552 36.4016 12.6334C36.4016 14.2117 35.7746 15.7253 34.6587 16.8413C33.5427 17.9573 32.0291 18.5842 30.4508 18.5842H24.5V6.68262Z" fill="#FF7262"/>
<path d="M36.4016 24.5001C36.4016 25.6771 36.0526 26.8276 35.3987 27.8062C34.7448 28.7848 33.8154 29.5475 32.7281 29.9979C31.6407 30.4483 30.4442 30.5662 29.2899 30.3366C28.1355 30.107 27.0752 29.5402 26.243 28.708C25.4107 27.8757 24.844 26.8154 24.6143 25.6611C24.3847 24.5067 24.5026 23.3102 24.953 22.2228C25.4034 21.1355 26.1661 20.2061 27.1447 19.5522C28.1233 18.8983 29.2738 18.5493 30.4508 18.5493C32.0291 18.5493 33.5427 19.1763 34.6587 20.2923C35.7746 21.4083 36.4016 22.9219 36.4016 24.5001Z" fill="#1ABCFE"/>
</svg>
