<svg xmlns="http://www.w3.org/2000/svg" width="30" height="27" fill="none" viewBox="0 0 30 27">
  <mask id="b" width="30" height="27" x="0" y="0" fill="#000" maskUnits="userSpaceOnUse">
    <path fill="#fff" d="M0 0h30v27H0z"/>
    <path d="M28.12 21.13 17.692 3.009c-1.54-2.677-4.065-2.677-5.603 0L1.659 21.131C.118 23.809 1.38 26 4.461 26l10.76-.194L25.318 26c3.082 0 4.344-2.19 2.803-4.87Z"/>
    <path d="m16.376 17.666 1.361 2.284.765-3.457-1.4-1.296c1.276-4.567-2.216-7.185-2.216-7.185s-3.492 2.618-2.216 7.185l-1.4 1.296.764 3.457 1.361-2.284c1.707 3.957-1.198 8.332-1.198 8.332h5.378s-2.906-4.375-1.198-8.332h-.001Zm-1.49-5.216a1.085 1.085 0 0 1 1.005.674 1.094 1.094 0 0 1-.791 1.489 1.084 1.084 0 0 1-1.118-.462 1.094 1.094 0 0 1 .904-1.7Z"/>
    <path d="M13.71 13.302c0 .19.046.377.135.545a1.077 1.077 0 0 1-.044-.303 1.094 1.094 0 0 1 .777-1.061 1.087 1.087 0 0 1 1.39.9c.02.157.007.316-.039.466a1.184 1.184 0 0 0-.763-1.693 1.175 1.175 0 0 0-1.458 1.146h.002Z"/>
  </mask>
  <path fill="#344356" d="M28.12 21.13 17.692 3.009c-1.54-2.677-4.065-2.677-5.603 0L1.659 21.131C.118 23.809 1.38 26 4.461 26l10.76-.194L25.318 26c3.082 0 4.344-2.19 2.803-4.87Z"/>
  <path fill="#fff" d="m16.376 17.666 1.361 2.284.765-3.457-1.4-1.296c1.276-4.567-2.216-7.185-2.216-7.185s-3.492 2.618-2.216 7.185l-1.4 1.296.764 3.457 1.361-2.284c1.707 3.957-1.198 8.332-1.198 8.332h5.378s-2.906-4.375-1.198-8.332h-.001Zm-1.49-5.216a1.085 1.085 0 0 1 1.005.674 1.094 1.094 0 0 1-.791 1.489 1.084 1.084 0 0 1-1.118-.462 1.094 1.094 0 0 1 .904-1.7Z"/>
  <path fill="url(#a)" d="M13.71 13.302c0 .19.046.377.135.545a1.077 1.077 0 0 1-.044-.303 1.094 1.094 0 0 1 .777-1.061 1.087 1.087 0 0 1 1.39.9c.02.157.007.316-.039.466a1.184 1.184 0 0 0-.763-1.693 1.175 1.175 0 0 0-1.458 1.146h.002Z"/>
  <path fill="#fff" d="m12.086 3.008.434.25-.434-.25ZM1.658 21.131l.433.25-.433-.25ZM18.123 2.759C17.3 1.327 16.144.5 14.888.5c-1.257 0-2.412.828-3.235 2.259l.867.498c.716-1.246 1.593-1.757 2.368-1.757.775 0 1.652.511 2.369 1.757l.866-.498Zm-6.47 0L1.225 20.88l.866.5L12.52 3.256l-.867-.498ZM1.225 20.88C.4 22.313.265 23.73.892 24.82c.627 1.09 1.918 1.68 3.568 1.68v-1c-1.434 0-2.314-.505-2.702-1.18-.388-.675-.384-1.693.333-2.94l-.866-.499ZM4.46 26.5h20.857v-1H4.46v1Zm20.857 0c1.648 0 2.94-.59 3.568-1.68.628-1.09.492-2.507-.332-3.939l-.867.5c.717 1.246.721 2.264.332 2.94-.388.674-1.268 1.179-2.701 1.179v1Zm2.804-5.37.867-.498-.867.499ZM17.69 3.009l-.866.499.866-.499Zm-5.603 0 .866.499-.867-.499ZM1.659 21.131l.867.499-.867-.5ZM4.461 26v1h.018l-.018-1Zm10.76-.194.02-1h-.038l.018 1ZM25.318 26l-.02 1h.02v-1Zm-8.942-8.334v-1h-1.76l.9 1.512.86-.512Zm1.361 2.284-.859.512 1.29 2.165.545-2.461-.976-.216Zm.765-3.457.976.216.124-.56-.42-.39-.68.734Zm-1.4-1.296-.964-.27-.164.59.448.414.68-.734Zm-2.216-7.185.6-.8-.6-.45-.6.45.6.8Zm-2.216 7.185.68.734.447-.415-.164-.588-.963.269Zm-1.4 1.296-.68-.734-.42.39.123.56.977-.216Zm.764 3.457-.976.216.544 2.461 1.291-2.165-.859-.512Zm1.361-2.284.919-.396-.775-1.797-1.002 1.681.858.512Zm-1.198 8.332-.833-.553-1.032 1.553h1.865v-1Zm5.378 0v1h1.865l-1.032-1.554-.833.554Zm-1.198-8.332.918.397.603-1.397h-1.521v1Zm-1.491-5.216v1-1Zm-1.088 1.095 1-.003-1 .003Zm-.088-.243 1-.001-.002-.999h-.998v1Zm.135.545-.885.466 1.844-.748-.96.282Zm-.044-.303h1v-.014l-1 .014Zm2.128.305-.956-.292 1.844.753-.888-.46Zm-2.22-.547h-1l-.001 1h1v-1Zm15.278 7.33L18.558 2.509l-1.733.998L27.254 21.63l1.733-.998ZM18.558 2.509C17.681.985 16.387 0 14.888 0c-1.497 0-2.791.986-3.668 2.51l1.734.996C13.617 2.353 14.354 2 14.89 2c.534 0 1.272.353 1.936 1.507l1.733-.998Zm-7.337 0L.792 20.632l1.734.997L12.954 3.508l-1.733-.998ZM.792 20.632c-.877 1.524-1.08 3.139-.333 4.437C1.207 26.367 2.704 27 4.461 27v-2c-1.326 0-2-.463-2.268-.929-.269-.467-.331-1.287.333-2.441l-1.734-.998ZM4.48 27l10.76-.194-.036-2L4.443 25l.036 2Zm10.723-.194L25.299 27l.038-2-10.097-.194-.038 2ZM25.318 27c1.756 0 3.254-.633 4.002-1.931.747-1.298.544-2.912-.332-4.437l-1.734.997c.664 1.154.601 1.974.332 2.442-.268.466-.942.929-2.268.929v2Zm-9.801-8.822 1.361 2.284 1.718-1.024-1.361-2.284-1.718 1.024Zm3.196 1.988.765-3.457-1.952-.432-.765 3.456 1.952.433Zm.468-4.407-1.4-1.296-1.359 1.468 1.4 1.296 1.36-1.468Zm-1.117-.293c.725-2.594.093-4.668-.728-6.077a8.307 8.307 0 0 0-1.207-1.593 7.064 7.064 0 0 0-.62-.567l-.014-.01a.468.468 0 0 0-.007-.006h-.001s-.001-.001-.601.8l-.6.799h-.001l-.002-.002c-.001-.001-.001 0 0 0a1.364 1.364 0 0 1 .096.08c.073.063.183.163.315.299.264.272.607.678.914 1.206.606 1.041 1.081 2.56.53 4.533l1.926.538Zm-3.178-7.454-.6-.8-.002.001-.002.002a.468.468 0 0 0-.005.004l-.014.01a3.835 3.835 0 0 0-.18.148 7.068 7.068 0 0 0-.44.42c-.351.36-.802.894-1.208 1.592-.82 1.41-1.453 3.483-.728 6.077l1.926-.538c-.551-1.973-.075-3.492.53-4.533a6.3 6.3 0 0 1 .915-1.206 5.06 5.06 0 0 1 .412-.38l-.002.001v.001h-.002l-.6-.799Zm-2.895 6.451-1.4 1.296 1.358 1.468 1.4-1.296-1.358-1.468Zm-1.698 2.246.765 3.457 1.953-.432-.765-3.457-1.953.432Zm2.6 3.753 1.361-2.284-1.717-1.024-1.362 2.284 1.718 1.024Zm-.416-2.4c.717 1.662.485 3.467.008 4.946a11.695 11.695 0 0 1-1.025 2.281 5.485 5.485 0 0 1-.094.152l-.003.005.834.552.833.552.002-.002.003-.005a.822.822 0 0 0 .04-.061 11.762 11.762 0 0 0 .437-.768c.264-.509.598-1.232.876-2.091.548-1.698.916-4.058-.074-6.353l-1.837.792Zm-.28 8.936h5.378v-2h-5.378v2Zm5.378-1c.833-.554.834-.553.834-.553 0 .001 0 .001 0 0l-.003-.004-.017-.028a9.733 9.733 0 0 1-.354-.623 11.694 11.694 0 0 1-.748-1.782c-.477-1.479-.709-3.284.008-4.945l-1.836-.793c-.991 2.295-.623 4.655-.075 6.353a13.682 13.682 0 0 0 1.212 2.692 7.585 7.585 0 0 0 .132.214l.01.014c0 .002.002.004.003.005v.002h.001l.833-.552Zm-1.198-9.332h-.001v2-2Zm-1.491-3.216c.017 0 .033.005.048.015l1.113-1.662a2.085 2.085 0 0 0-1.161-.353v2Zm.048.015a.09.09 0 0 1 .033.04l1.848-.763a2.091 2.091 0 0 0-.768-.939l-1.113 1.662Zm.033.04a.095.095 0 0 1 .005.056l1.962.387c.08-.405.039-.825-.119-1.206l-1.848.764Zm.005.056a.093.093 0 0 1-.025.047l1.418 1.41c.292-.293.49-.665.57-1.07l-1.963-.387Zm-.025.047a.088.088 0 0 1-.044.024l.394 1.96a2.087 2.087 0 0 0 1.068-.574l-1.418-1.41Zm-.044.024a.086.086 0 0 1-.05-.005l-.764 1.849a2.09 2.09 0 0 0 1.208.117l-.394-1.96Zm-.05-.005a.089.089 0 0 1-.04-.033l-1.662 1.113c.23.343.556.61.938.769l.764-1.849Zm-.04-.033a.093.093 0 0 1-.015-.052l-2 .005c0 .413.124.816.353 1.16l1.663-1.113Zm-.015-.052c0-.013.002-.025.007-.036l-1.85-.76a2.093 2.093 0 0 0-.157.802l2-.006Zm.007-.036a.09.09 0 0 1 .02-.03l-1.419-1.41a2.091 2.091 0 0 0-.451.68l1.85.76Zm.02-.03a.086.086 0 0 1 .028-.019l-.768-1.847c-.254.106-.485.26-.679.456l1.418 1.41Zm.028-.019a.083.083 0 0 1 .032-.007l.001-2c-.275 0-.547.055-.801.16l.768 1.847Zm-2.143-.153c0 .351.086.698.25 1.009l1.77-.931a.175.175 0 0 1-.02-.081l-2 .003Zm2.094.26a.074.074 0 0 1-.003-.02l-2 .002c0 .197.029.394.084.584l1.92-.565Zm-.003-.034c0-.013.002-.027.008-.04l-1.83-.808a2.094 2.094 0 0 0-.178.877l2-.028Zm.008-.04a.09.09 0 0 1 .023-.03l-1.324-1.5c-.226.2-.406.446-.528.722l1.829.809Zm.023-.03a.085.085 0 0 1 .033-.019l-.574-1.916c-.29.087-.556.235-.783.435l1.324 1.5Zm.033-.019a.085.085 0 0 1 .036-.003l.284-1.98a2.085 2.085 0 0 0-.894.067l.574 1.916Zm.036-.003a.086.086 0 0 1 .034.013l1.088-1.678a2.087 2.087 0 0 0-.838-.314l-.284 1.98Zm.034.013c.011.007.02.016.028.028l1.69-1.07a2.09 2.09 0 0 0-.63-.636l-1.088 1.678Zm.028.028a.093.093 0 0 1 .013.038l1.982-.267a2.094 2.094 0 0 0-.305-.84l-1.69 1.069Zm.013.038a.095.095 0 0 1-.003.04l1.913.585c.088-.289.113-.593.072-.892l-1.982.267Zm1.84.793c.153-.292.237-.616.246-.946l-2-.056a.185.185 0 0 1-.02.08l1.775.922Zm.246-.946a2.198 2.198 0 0 0-.192-.959l-1.824.822a.184.184 0 0 1 .017.081l1.999.056Zm-.192-.959a2.18 2.18 0 0 0-.592-.778l-1.28 1.536a.19.19 0 0 1 .048.064l1.824-.822Zm-.592-.778a2.176 2.176 0 0 0-.873-.442l-.478 1.942c.026.006.05.019.07.036l1.281-1.536Zm-.873-.442a2.173 2.173 0 0 0-.978-.014l.422 1.955a.173.173 0 0 1 .078.001l.478-1.942Zm-.978-.014c-.323.07-.626.212-.886.417l1.236 1.572a.175.175 0 0 1 .072-.034l-.422-1.955Zm-.886.417a2.18 2.18 0 0 0-.613.761l1.799.874a.179.179 0 0 1 .05-.063l-1.236-1.572Zm-.613.761c-.145.297-.22.623-.22.953l2 .001c0-.028.007-.055.019-.08l-1.8-.874Zm.78 1.953h.002v-2h-.002v2Z" mask="url(#b)"/>
  <defs>
    <linearGradient id="a" x1="14.908" x2="14.908" y1="-.782" y2="27.218" gradientUnits="userSpaceOnUse">
      <stop stop-color="#BBB"/>
      <stop offset="1" stop-color="#fff"/>
    </linearGradient>
  </defs>
</svg>
