<svg width="55" height="55" viewBox="0 0 55 55" fill="none" xmlns="http://www.w3.org/2000/svg">
<defs>
<radialGradient id="paint0_radial_762_3157" cx="0" cy="0" r="1" gradientUnits="userSpaceOnUse" gradientTransform="translate(20.625 39.5313) rotate(-55.3758) scale(43.8618)">
<stop stop-color="#B13589"/>
<stop offset="0.79309" stop-color="#C62F94"/>
<stop offset="1" stop-color="#8A3AC8"/>
</radialGradient>
<radialGradient id="paint1_radial_762_3157" cx="0" cy="0" r="1" gradientUnits="userSpaceOnUse" gradientTransform="translate(18.9062 53.2812) rotate(-65.1363) scale(38.8339)">
<stop stop-color="#E0E8B7"/>
<stop offset="0.444662" stop-color="#FB8A2E"/>
<stop offset="0.71474" stop-color="#E2425C"/>
<stop offset="1" stop-color="#E2425C" stop-opacity="0"/>
</radialGradient>
<radialGradient id="paint2_radial_762_3157" cx="0" cy="0" r="1" gradientUnits="userSpaceOnUse" gradientTransform="translate(0.859378 5.15625) rotate(-8.1301) scale(66.8437 14.2972)">
<stop offset="0.156701" stop-color="#406ADC"/>
<stop offset="0.467799" stop-color="#6A45BE"/>
<stop offset="1" stop-color="#6A45BE" stop-opacity="0"/>
</radialGradient>
</defs>

<rect x="3.4375" y="3.4375" width="48.125" height="48.125" rx="6" fill="url(#paint0_radial_762_3157)"/>
<rect x="3.4375" y="3.4375" width="48.125" height="48.125" rx="6" fill="url(#paint1_radial_762_3157)"/>
<rect x="3.4375" y="3.4375" width="48.125" height="48.125" rx="6" fill="url(#paint2_radial_762_3157)"/>
<path d="M39.5312 18.0469C39.5312 19.4707 38.377 20.625 36.9531 20.625C35.5293 20.625 34.375 19.4707 34.375 18.0469C34.375 16.623 35.5293 15.4688 36.9531 15.4688C38.377 15.4688 39.5312 16.623 39.5312 18.0469Z" />
<path fill-rule="evenodd" clip-rule="evenodd" d="M27.5 36.0938C32.2462 36.0938 36.0938 32.2462 36.0938 27.5C36.0938 22.7538 32.2462 18.9062 27.5 18.9062C22.7538 18.9062 18.9062 22.7538 18.9062 27.5C18.9062 32.2462 22.7538 36.0938 27.5 36.0938ZM27.5 32.6562C30.3477 32.6562 32.6562 30.3477 32.6562 27.5C32.6562 24.6523 30.3477 22.3438 27.5 22.3438C24.6523 22.3438 22.3438 24.6523 22.3438 27.5C22.3438 30.3477 24.6523 32.6562 27.5 32.6562Z" fill="white"/>
<path fill-rule="evenodd" clip-rule="evenodd" d="M10.3125 26.8125C10.3125 21.037 10.3125 18.1492 11.4365 15.9432C12.4252 14.0028 14.0028 12.4252 15.9432 11.4365C18.1492 10.3125 21.037 10.3125 26.8125 10.3125H28.1875C33.963 10.3125 36.8508 10.3125 39.0568 11.4365C40.9972 12.4252 42.5748 14.0028 43.5635 15.9432C44.6875 18.1492 44.6875 21.037 44.6875 26.8125V28.1875C44.6875 33.963 44.6875 36.8508 43.5635 39.0568C42.5748 40.9972 40.9972 42.5748 39.0568 43.5635C36.8508 44.6875 33.963 44.6875 28.1875 44.6875H26.8125C21.037 44.6875 18.1492 44.6875 15.9432 43.5635C14.0028 42.5748 12.4252 40.9972 11.4365 39.0568C10.3125 36.8508 10.3125 33.963 10.3125 28.1875V26.8125ZM26.8125 13.75H28.1875C31.132 13.75 33.1336 13.7527 34.6808 13.8791C36.1879 14.0022 36.9586 14.2254 37.4962 14.4993C38.7898 15.1585 39.8415 16.2102 40.5007 17.5038C40.7746 18.0414 40.9978 18.8121 41.1209 20.3192C41.2473 21.8664 41.25 23.868 41.25 26.8125V28.1875C41.25 31.132 41.2473 33.1336 41.1209 34.6808C40.9978 36.1879 40.7746 36.9586 40.5007 37.4962C39.8415 38.7898 38.7898 39.8415 37.4962 40.5007C36.9586 40.7746 36.1879 40.9978 34.6808 41.1209C33.1336 41.2473 31.132 41.25 28.1875 41.25H26.8125C23.868 41.25 21.8664 41.2473 20.3192 41.1209C18.8121 40.9978 18.0414 40.7746 17.5038 40.5007C16.2102 39.8415 15.1585 38.7898 14.4993 37.4962C14.2254 36.9586 14.0022 36.1879 13.8791 34.6808C13.7527 33.1336 13.75 31.132 13.75 28.1875V26.8125C13.75 23.868 13.7527 21.8664 13.8791 20.3192C14.0022 18.8121 14.2254 18.0414 14.4993 17.5038C15.1585 16.2102 16.2102 15.1585 17.5038 14.4993C18.0414 14.2254 18.8121 14.0022 20.3192 13.8791C21.8664 13.7527 23.868 13.75 26.8125 13.75Z" fill="white"/>

</svg>
