<svg width="47" height="47" viewBox="0 0 47 47" fill="none" xmlns="http://www.w3.org/2000/svg">
<g clip-path="url(#clip0_762_3388)">
<path d="M23.6133 12.2198C32.1614 12.2198 39.5213 18.2534 41.1977 26.6356L43.3573 37.4337C43.9682 40.4881 41.9873 43.4594 38.9329 44.0703C38.5687 44.1431 38.1982 44.1798 37.8268 44.1798H9.39977C6.28488 44.1798 3.75977 41.6547 3.75977 38.5398C3.75977 38.1684 3.79645 37.7979 3.86929 37.4337L6.02892 26.6356C7.70535 18.2534 15.0652 12.2198 23.6133 12.2198ZM23.6133 19.7398C22.6222 19.7398 21.8102 20.5068 21.7385 21.4795L21.7326 21.6208L21.5719 21.6244C19.5825 21.7222 17.9995 23.3662 17.9995 25.3798V26.3212C17.9995 28.3978 19.6829 30.0812 21.7595 30.0812H25.4933V31.0198H21.4601C21.1361 30.5179 20.5789 30.1785 19.9367 30.1589C18.8989 30.1274 18.032 30.9431 18.0004 31.9809L17.9742 32.8427C17.9419 33.9029 18.7926 34.7798 19.8533 34.7798L21.7334 34.7804C21.7426 35.8109 22.5807 36.6434 23.6133 36.6434C24.6044 36.6434 25.4164 35.8764 25.4881 34.9037L25.4916 34.7798C27.5699 34.7798 29.2533 33.0964 29.2533 31.0198V30.0812C29.2533 28.0047 27.5699 26.3212 25.4933 26.3212H21.7595V25.3798H25.8122C26.1566 25.8134 26.6884 26.0915 27.2851 26.0915C28.3234 26.0915 29.1651 25.2498 29.1651 24.2115V23.4998C29.1651 22.4615 28.3234 21.6198 27.2851 21.6198H25.4933C25.4933 20.5815 24.6516 19.7398 23.6133 19.7398ZM34.8062 5.27057L34.7588 5.40177L32.7322 10.4675C29.9444 9.17459 26.8492 8.45982 23.6133 8.45982C20.3768 8.45982 17.2812 9.17483 14.4931 10.4682L12.4678 5.40177C11.8911 3.96012 13.2066 2.50329 14.6725 2.88013L14.8062 2.91949L19.7234 4.55359L22.7695 3.02358C23.245 2.78469 23.7969 2.75973 24.2885 2.94898L24.45 3.01999L27.5368 4.55402L32.4166 2.92076C33.8908 2.42737 35.2702 3.82805 34.8062 5.27057Z" fill="white"/>
</g>
<defs>
<clipPath id="clip0_762_3388">
<rect width="47" height="47" fill="white"/>
</clipPath>
</defs>
</svg>
