<svg width="49" height="49" viewBox="0 0 49 49" fill="none" xmlns="http://www.w3.org/2000/svg">
<path d="M9.47173 40.3513C8.64531 39.5249 7.21188 39.5249 6.38546 40.3513L6.09293 40.6438C5.23725 41.4995 5.23725 42.8818 6.09293 43.7301L10.4298 48.067C11.2621 48.9142 12.6461 48.9369 13.5161 48.067L13.8086 47.7744C14.6643 46.9188 14.6643 45.5365 13.8086 44.6882L9.47173 40.3513ZM21.9338 18.784C21.1001 17.9503 19.652 17.9503 18.8183 18.784L18.5184 19.0838C17.6628 19.9468 17.6628 21.3364 18.5184 22.1994L32.509 36.19C33.3675 37.0484 34.7658 37.0487 35.6246 36.19L35.9244 35.8901C36.7801 35.0271 36.7801 33.6376 35.9244 32.7746L21.9338 18.784ZM17.7152 23.4658L10.3213 39.1531C10.4022 39.2071 14.9523 43.7204 15.2213 44.097L17.4595 43.0419L19.8081 45.3905C20.5223 46.1046 21.6845 46.113 22.4071 45.3905L25.9938 41.8038C26.7102 41.0874 26.7102 39.9211 25.9938 39.2048L25.8676 39.0785L30.9379 36.6885L17.7152 23.4658ZM24.9597 40.7696L21.373 44.3564C21.2308 44.4985 20.983 44.4971 20.8423 44.3564L18.8653 42.3793L24.4616 39.7414L24.9597 40.239C25.1061 40.3854 25.1061 40.6232 24.9597 40.7696Z" fill="white"/>
<path d="M33.5216 21.9151L32.4873 20.8809L30.049 23.3192L31.0833 24.3534L33.5216 21.9151Z" fill="white"/>
<path d="M36.3021 25.3869L35.7422 24.0356L30.6587 26.1421L31.2187 27.4934L36.3021 25.3869Z" fill="white"/>
<path d="M26.9095 23.1847L28.2607 23.7446L30.3669 18.6618L29.0157 18.1019L26.9095 23.1847Z" fill="white"/>
<path d="M26.9299 13.5415V18.0978L31.6763 14.7921H32.7587C38.4559 14.7921 43.0926 11.5376 43.0926 7.53716C43.0926 3.53671 38.4559 0.289551 32.7587 0.289551C27.0542 0.289551 22.4175 3.53671 22.4175 7.53716C22.4175 9.97985 24.0996 12.1958 26.9299 13.5415ZM28.2405 4.87164H37.2701V6.33432H28.2405V4.87164ZM28.2405 8.74622H37.2701V10.2089H28.2405V8.74622ZM21.5765 13.4391C21.6203 13.6512 21.5618 13.8779 21.4229 14.0461L18.1757 17.9369C18.0159 18.1303 17.7462 18.2484 17.4297 18.1782C17.1591 18.1051 16.9471 17.8857 16.8959 17.6078L15.6745 11.3182C15.6233 11.0403 15.733 10.7624 15.9597 10.5942C16.1865 10.426 16.4863 10.404 16.735 10.5357L21.2035 12.9345C21.4009 13.0369 21.5399 13.2197 21.5765 13.4391ZM15.733 8.15149L14.1508 1.85009L9.36192 6.99926C9.22121 7.15065 9.02558 7.23278 8.82629 7.23278C8.74489 7.23278 8.66342 7.21925 8.58415 7.19138L1.93652 4.86052L3.53422 11.2231C3.62198 11.5596 3.92184 11.779 4.24363 11.779C4.30213 11.779 4.36795 11.7716 4.42646 11.757L15.2065 9.04373C15.5941 8.94134 15.8354 8.54642 15.733 8.15149Z" fill="white"/>
<path d="M12.9397 1.00391L2.70605 3.58043L8.61677 5.65232L12.9397 1.00391Z" fill="white"/>
<path d="M7.4293 22.0541C7.9321 22.3669 8.50927 22.5421 9.11607 22.5421C10.8886 22.5421 12.3243 21.1068 12.3243 19.3332C12.3243 17.5606 10.8896 16.125 9.11607 16.125C7.34307 16.125 5.90715 17.5597 5.90715 19.3332C5.90715 19.9401 6.08209 20.5173 6.39496 21.0201L4.85585 22.5593C4.57019 22.8449 4.57019 23.3077 4.85585 23.5934C5.14152 23.8791 5.60431 23.8791 5.88997 23.5934L7.4293 22.0541ZM9.11607 17.5877C10.0801 17.5877 10.8616 18.3681 10.8616 19.3332C10.8616 21.6188 7.36984 21.6281 7.36984 19.3332C7.36984 18.3683 8.151 17.5877 9.11607 17.5877ZM40.9141 22.5312L42.5025 19.4601L43.3296 19.8872L43.7853 19.0066L42.9582 18.5788L43.0711 18.3602C43.2966 17.9259 43.6274 17.8376 44.0024 18.0317C44.1059 18.0853 44.2245 18.1703 44.3559 18.2839L44.8316 17.3639C44.6901 17.2053 44.483 17.0561 44.2138 16.9168C43.2327 16.4082 42.4206 16.736 41.9105 17.721L41.782 17.9703L41.0406 17.5867L40.5849 18.4681L41.3263 18.8516L39.7379 21.9227L40.9141 22.5312ZM44.8976 29.4223L43.1604 31.1595L43.8366 31.8358L44.7053 30.9672L45.6794 31.9413C45.4976 32.2474 45.2845 32.5231 45.0406 32.767C44.1512 33.6563 43.1993 33.5942 42.1857 32.5807C41.1929 31.5878 41.1227 30.6651 41.9751 29.8127C42.4472 29.3406 42.9516 29.1111 43.6321 29.0001L43.2468 27.9946C42.4807 28.042 41.7212 28.5273 41.1802 29.0682C39.8355 30.413 39.7987 32.1673 41.1989 33.5675C42.6508 35.0194 44.3793 34.9303 45.7542 33.5554C46.2882 33.0212 46.8143 32.2982 47.0631 31.5878L44.8976 29.4223Z" fill="white"/>
</svg>
