<svg width="48" height="48" viewBox="0 0 48 48" fill="none" xmlns="http://www.w3.org/2000/svg">
<path d="M21.4 26.6C20.6 25.8 19.4 25.8 18.6 26.6L13 32.2L7.4 26.6C6.6 25.8 5.4 25.8 4.6 26.6C3.8 27.4 3.8 28.6 4.6 29.4L10.2 35L4.6 40.6C3.8 41.4 3.8 42.6 4.6 43.4C5.4 44.2 6.6 44.2 7.4 43.4L13 37.8L18.6 43.4C19.4 44.2 20.6 44.2 21.4 43.4C22.2 42.6 22.2 41.4 21.4 40.6L15.8 35L21.4 29.4C22.2 28.6 22.2 27.4 21.4 26.6V26.6ZM27.2 21.8C27.4 22 27.6 22 28 22H42C43.2 22 44 21.2 44 20C44 19.6 44 19.4 43.8 19.2L36.8 5.2C36.2 4.2 35 3.8 34 4.4C33.8 4.6 33.4 4.8 33.2 5.2L26.2 19.2C25.8 20 26.2 21.2 27.2 21.8V21.8ZM13 4C8 4 4 8 4 13C4 18 8 22 13 22C18 22 22 18 22 13C22 8 18 4 13 4ZM42 26H28C26.8 26 26 26.8 26 28V42C26 43.2 26.8 44 28 44H42C43.2 44 44 43.2 44 42V28C44 26.8 43.2 26 42 26Z" fill="white"/>
</svg>
