<svg width="44" height="38" viewBox="0 0 44 38" fill="none" xmlns="http://www.w3.org/2000/svg">
<g clip-path="url(#clip0_762_3392)">
<path d="M12.0292 29.9981C12.3058 30.2644 12.6763 30.4117 13.0608 30.4083C13.4454 30.405 13.8132 30.2513 14.0852 29.9803C14.3571 29.7093 14.5113 29.3428 14.5147 28.9596C14.518 28.5763 14.3702 28.2072 14.103 27.9315L9.54022 23.3847L14.103 18.8378C14.3702 18.5622 14.518 18.193 14.5147 17.8098C14.5113 17.4266 14.3571 17.06 14.0852 16.789C13.8132 16.518 13.4454 16.3643 13.0608 16.361C12.6763 16.3577 12.3058 16.505 12.0292 16.7712L6.42942 22.3514C6.15446 22.6254 6 22.9971 6 23.3847C6 23.7722 6.15446 24.1439 6.42942 24.418L12.0292 29.9981ZM29.8961 29.9981C30.1711 30.2721 30.5441 30.426 30.933 30.426C31.3219 30.426 31.6949 30.2721 31.97 29.9981L37.5697 24.418C37.8446 24.1439 37.9991 23.7722 37.9991 23.3847C37.9991 22.9971 37.8446 22.6254 37.5697 22.3514L31.97 16.7712C31.6933 16.505 31.3229 16.3577 30.9383 16.361C30.5537 16.3643 30.1859 16.518 29.914 16.789C29.642 17.06 29.4878 17.4266 29.4844 17.8098C29.4811 18.193 29.6289 18.5622 29.8961 18.8378L34.4589 23.3847L29.8961 27.9315C29.6211 28.2056 29.4667 28.5773 29.4667 28.9648C29.4667 29.3524 29.6211 29.724 29.8961 29.9981V29.9981ZM18.8154 31.3194C19.1768 31.4629 19.5806 31.4576 19.9381 31.3047C20.2956 31.1518 20.5776 30.8638 20.7221 30.5038L26.0021 17.35C26.0735 17.1717 26.1091 16.9811 26.1066 16.7891C26.1041 16.5971 26.0638 16.4075 25.9878 16.2311C25.9118 16.0546 25.8017 15.8948 25.6637 15.7608C25.5257 15.6268 25.3626 15.5212 25.1837 15.45C25.0048 15.3788 24.8135 15.3434 24.6208 15.3458C24.4282 15.3483 24.2379 15.3885 24.0609 15.4642C23.8838 15.54 23.7235 15.6497 23.589 15.7872C23.4545 15.9247 23.3485 16.0872 23.277 16.2655L17.997 29.4194C17.9255 29.5977 17.8899 29.7882 17.8924 29.9802C17.8948 30.1723 17.9351 30.3619 18.0111 30.5383C18.0871 30.7148 18.1973 30.8746 18.3353 31.0086C18.4733 31.1426 18.6364 31.2482 18.8154 31.3194V31.3194Z" fill="white"/>
<path d="M38.1333 0H5.86667C4.31121 0.0015477 2.8199 0.617977 1.72002 1.71401C0.620145 2.81004 0.00155313 4.29613 0 5.84615L0 32.1538C0.00155313 33.7039 0.620145 35.19 1.72002 36.286C2.8199 37.382 4.31121 37.9985 5.86667 38H38.1333C39.6888 37.9985 41.1801 37.382 42.28 36.286C43.3799 35.19 43.9984 33.7039 44 32.1538V5.84615C43.9984 4.29613 43.3799 2.81004 42.28 1.71401C41.1801 0.617977 39.6888 0.0015477 38.1333 0V0ZM16.148 4.38462H16.1627C16.551 4.38655 16.9227 4.54189 17.1963 4.81655C17.4699 5.09122 17.623 5.4628 17.622 5.84979C17.621 6.23678 17.4661 6.60759 17.1911 6.88089C16.9162 7.15419 16.5437 7.30767 16.1553 7.30767C15.767 7.30767 15.3945 7.15419 15.1195 6.88089C14.8446 6.60759 14.6896 6.23678 14.6887 5.84979C14.6877 5.4628 14.8408 5.09122 15.1144 4.81655C15.3879 4.54189 15.7597 4.38655 16.148 4.38462ZM11.748 4.38462H11.7627C12.151 4.38655 12.5227 4.54189 12.7963 4.81655C13.0699 5.09122 13.223 5.4628 13.222 5.84979C13.221 6.23678 13.0661 6.60759 12.7911 6.88089C12.5162 7.15419 12.1437 7.30767 11.7553 7.30767C11.367 7.30767 10.9945 7.15419 10.7195 6.88089C10.4446 6.60759 10.2896 6.23678 10.2887 5.84979C10.2877 5.4628 10.4408 5.09122 10.7144 4.81655C10.9879 4.54189 11.3597 4.38655 11.748 4.38462ZM7.348 4.38462H7.36267C7.75101 4.38655 8.12273 4.54189 8.39631 4.81655C8.66988 5.09122 8.82297 5.4628 8.822 5.84979C8.82102 6.23678 8.66607 6.60759 8.39113 6.88089C8.11618 7.15419 7.74368 7.30767 7.35533 7.30767C6.96698 7.30767 6.59449 7.15419 6.31954 6.88089C6.04459 6.60759 5.88964 6.23678 5.88867 5.84979C5.8877 5.4628 6.04079 5.09122 6.31436 4.81655C6.58793 4.54189 6.95966 4.38655 7.348 4.38462V4.38462ZM41.0667 32.1538C41.0659 32.9289 40.7566 33.6719 40.2067 34.2199C39.6567 34.7679 38.9111 35.0761 38.1333 35.0769H5.86667C5.08894 35.0761 4.34328 34.7679 3.79334 34.2199C3.24341 33.6719 2.93411 32.9289 2.93333 32.1538V11.6923H41.0667V32.1538Z" fill="white"/>
</g>
<defs>
<clipPath id="clip0_762_3392">
<rect width="44" height="38" fill="white"/>
</clipPath>
</defs>
</svg>
