<svg width="18" height="18" viewBox="0 0 18 18" fill="none" xmlns="http://www.w3.org/2000/svg">
<path d="M17.6481 16.265C17.6481 16.265 17.6481 13.2502 15.4457 12.1547C14.0518 11.4612 14.589 11.9917 12.8777 11.2822C11.1667 10.5738 10.7613 10.3422 10.7613 10.3422L10.7462 8.71722C10.7462 8.71722 11.387 8.2308 11.5869 6.69406C11.987 6.80987 12.1224 6.22501 12.1442 5.85137C12.1679 5.49042 12.3808 4.36537 11.8914 4.46574C11.9915 3.7146 12.07 3.03543 12.0347 2.67586C11.9123 1.41404 11.0398 0.0962361 8.83745 0C6.96512 0.0962361 5.74962 1.41486 5.62691 2.67669C5.59162 3.03626 5.66359 3.71488 5.76368 4.46739C5.27451 4.36564 5.48518 5.4929 5.50669 5.85358C5.5304 6.22722 5.66276 6.81373 6.0637 6.69792C6.26279 8.23494 6.90363 8.72494 6.90363 8.72494L6.88763 10.3587C6.88763 10.3587 6.48228 10.6061 4.77127 11.3145C3.06025 12.0243 3.59686 11.4615 2.20295 12.1547C0 13.2508 0 16.265 0 16.265H0.000551496C0.000275748 16.2655 0 16.2664 0 16.2669C0 16.7238 0.37033 17.0942 0.827244 17.0942H16.8206C17.2775 17.0942 17.6479 16.7238 17.6479 16.2669C17.6479 16.2661 17.6476 16.2655 17.6476 16.265H17.6481Z" fill="white"/>
</svg>
