<svg width="73" height="73" viewBox="0 0 73 73" fill="none" xmlns="http://www.w3.org/2000/svg">
<path d="M30 0C13.467 0 0 13.467 0 30C0 46.533 13.467 60 30 60C37.1895 60 43.7922 57.447 48.9668 53.209L66.8789 71.1211C67.1553 71.409 67.4864 71.6389 67.8528 71.7972C68.2192 71.9556 68.6135 72.0393 69.0126 72.0433C69.4118 72.0474 69.8077 71.9718 70.1772 71.8209C70.5468 71.67 70.8825 71.447 71.1647 71.1647C71.447 70.8825 71.67 70.5468 71.8209 70.1772C71.9718 69.8077 72.0474 69.4118 72.0433 69.0126C72.0393 68.6135 71.9556 68.2192 71.7972 67.8528C71.6389 67.4864 71.409 67.1553 71.1211 66.8789L53.209 48.9668C57.447 43.7922 60 37.1895 60 30C60 13.467 46.533 0 30 0ZM30 6C43.2904 6 54 16.7096 54 30C54 43.2904 43.2904 54 30 54C16.7096 54 6 43.2904 6 30C6 16.7096 16.7096 6 30 6ZM18 27C17.2044 27 16.4413 27.3161 15.8787 27.8787C15.3161 28.4413 15 29.2044 15 30C15 30.7956 15.3161 31.5587 15.8787 32.1213C16.4413 32.6839 17.2044 33 18 33C18.7956 33 19.5587 32.6839 20.1213 32.1213C20.6839 31.5587 21 30.7956 21 30C21 29.2044 20.6839 28.4413 20.1213 27.8787C19.5587 27.3161 18.7956 27 18 27ZM30 27C29.2044 27 28.4413 27.3161 27.8787 27.8787C27.3161 28.4413 27 29.2044 27 30C27 30.7956 27.3161 31.5587 27.8787 32.1213C28.4413 32.6839 29.2044 33 30 33C30.7956 33 31.5587 32.6839 32.1213 32.1213C32.6839 31.5587 33 30.7956 33 30C33 29.2044 32.6839 28.4413 32.1213 27.8787C31.5587 27.3161 30.7956 27 30 27ZM42 27C41.2044 27 40.4413 27.3161 39.8787 27.8787C39.3161 28.4413 39 29.2044 39 30C39 30.7956 39.3161 31.5587 39.8787 32.1213C40.4413 32.6839 41.2044 33 42 33C42.7956 33 43.5587 32.6839 44.1213 32.1213C44.6839 31.5587 45 30.7956 45 30C45 29.2044 44.6839 28.4413 44.1213 27.8787C43.5587 27.3161 42.7956 27 42 27Z" fill="#344356"/>
</svg>
