<svg width="12" height="20" viewBox="0 0 12 20" fill="none" xmlns="http://www.w3.org/2000/svg">
<path fill-rule="evenodd" clip-rule="evenodd" d="M9.95285 0C10.4919 0 10.9587 0.196853 11.3524 0.590995C11.7466 0.984973 11.9434 1.4514 11.9434 1.99048V17.9153C11.9434 18.4543 11.7464 18.9209 11.3523 19.3148C10.9587 19.7086 10.4919 19.9059 9.95285 19.9059H1.9907C1.45145 19.9059 0.984973 19.7088 0.590995 19.3148C0.197016 18.9209 0 18.4543 0 17.9153V1.99048C0 1.4514 0.197016 0.984756 0.590995 0.590995C0.984973 0.197016 1.45145 0 1.9907 0H9.95285ZM10.3029 15.7771C10.4016 15.6788 10.4508 15.5617 10.4508 15.4271V15.4271H10.4505V4.47898C10.4505 4.34422 10.4016 4.22755 10.3029 4.12912C10.2043 4.03059 10.0878 3.98129 9.95285 3.98129H1.9907C1.85594 3.98129 1.73938 4.0308 1.64084 4.12912C1.54231 4.22749 1.49312 4.34422 1.49312 4.47898V15.4271C1.49312 15.5617 1.54236 15.6788 1.64084 15.7771C1.73932 15.8753 1.85594 15.9245 1.9907 15.9245H9.95323C10.0878 15.9245 10.2042 15.8755 10.3029 15.7771Z" fill="white"/>
</svg>
