<svg width="17" height="17" viewBox="0 0 17 17" fill="none" xmlns="http://www.w3.org/2000/svg">
<path fill-rule="evenodd" clip-rule="evenodd" d="M0.283356 8.35833C0.283356 3.74935 4.03271 0 8.64169 0C13.2507 0 17 3.74935 17 8.35833C17 12.9673 13.2507 16.7167 8.64169 16.7167C7.32702 16.7167 6.01887 16.4027 4.85097 15.8077L0.355323 16.9907C0.331523 16.9969 0.307439 17 0.283356 17C0.206289 17 0.130923 16.9685 0.0765226 16.9105C0.00540594 16.8345 -0.0183941 16.726 0.0144726 16.6271L1.38722 12.5092C0.664723 11.2489 0.283356 9.81637 0.283356 8.35833ZM3.68336 8.5C3.68336 9.12503 4.19166 9.63333 4.81669 9.63333C5.44172 9.63333 5.95002 9.12503 5.95002 8.5C5.95002 7.87497 5.44172 7.36667 4.81669 7.36667C4.19166 7.36667 3.68336 7.87497 3.68336 8.5ZM8.50002 9.63333C7.87499 9.63333 7.36669 9.12503 7.36669 8.5C7.36669 7.87497 7.87499 7.36667 8.50002 7.36667C9.12506 7.36667 9.63336 7.87497 9.63336 8.5C9.63336 9.12503 9.12506 9.63333 8.50002 9.63333ZM11.05 8.5C11.05 9.12503 11.5583 9.63333 12.1834 9.63333C12.8084 9.63333 13.3167 9.12503 13.3167 8.5C13.3167 7.87497 12.8084 7.36667 12.1834 7.36667C11.5583 7.36667 11.05 7.87497 11.05 8.5Z" fill="white"/>
</svg>
