<svg width="16" height="16" viewBox="0 0 16 16" fill="none" xmlns="http://www.w3.org/2000/svg">
<path fill-rule="evenodd" clip-rule="evenodd" d="M8 0C3.6 0 0 3.6 0 8C0 12.4 3.6 16 8 16C12.4 16 16 12.4 16 8C16 3.6 12.4 0 8 0ZM7.2 13.6V12H8.8V13.6H7.2ZM9.76 8.16L10.48 7.44C10.88 6.96 11.2 6.32 11.2 5.6C11.2 3.84 9.76 2.4 8 2.4C6.24 2.4 4.8 3.84 4.8 5.6H6.4C6.4 4.72 7.12 4 8 4C8.88 4 9.6 4.72 9.6 5.6C9.6 6.08 9.44 6.48 9.12 6.72L8.16 7.76C7.52 8.32 7.2 9.12 7.2 10V10.4H8.8C8.8 9.2 9.12 8.72 9.76 8.16Z" fill="white"/>
</svg>
