<svg width="14" height="22" viewBox="0 0 14 22" fill="none" xmlns="http://www.w3.org/2000/svg">
<path fill-rule="evenodd" clip-rule="evenodd" d="M7 0C10.8655 0 14 3.134 14 7C14 10.3505 11.6445 13.1475 8.5 13.835V17.9995H9.5C10.052 17.9995 10.5 18.4475 10.5 18.9995V20.9995C10.5 21.5515 10.052 21.9995 9.5 21.9995H7.5C6.3955 21.9995 5.5 21.1045 5.5 19.9995V13.835C2.3555 13.1475 0 10.3505 0 7C0 3.134 3.134 0 7 0ZM3 7C3 9.209 4.7905 11 7 11C9.209 11 11 9.209 11 7C11 4.7905 9.209 3 7 3C4.7905 3 3 4.7905 3 7Z" fill="white"/>
</svg>
