<svg width="13" height="13" viewBox="0 0 13 13" fill="none" xmlns="http://www.w3.org/2000/svg">
<path fill-rule="evenodd" clip-rule="evenodd" d="M6.63997 0.850963L6.92836 0.714355L7.21676 0.850963L12.5293 3.08221L12.9998 3.27953V3.75007C12.9998 6.26971 11.9828 8.48578 10.7685 10.1099C10.1614 10.9144 9.50872 11.5822 8.87122 12.0527C8.23372 12.5233 7.62658 12.8572 6.92836 12.8572C6.24533 12.8572 5.62301 12.5233 4.98551 12.0527C4.34801 11.5822 3.69533 10.9144 3.08818 10.1099C1.8739 8.48578 0.856934 6.26971 0.856934 3.75007V3.27953L1.32747 3.08221L6.63997 0.850963ZM6.92836 11.3394V2.384L2.46586 4.23578C2.58729 6.1331 3.34622 7.92418 4.31765 9.21435C4.8489 9.91257 5.42568 10.5045 5.92658 10.8688C6.42747 11.2331 6.86765 11.3394 6.92836 11.3394Z" fill="white"/>
</svg>
