<svg width="13" height="13" viewBox="0 0 13 13" fill="none" xmlns="http://www.w3.org/2000/svg">
<path fill-rule="evenodd" clip-rule="evenodd" d="M1.05937 6.82742C1.05937 3.53528 3.73748 0.857178 7.02961 0.857178C10.3217 0.857178 12.9999 3.53528 12.9999 6.82742C12.9999 10.1195 10.3217 12.7977 7.02961 12.7977C6.09056 12.7977 5.15617 12.5734 4.32196 12.1484L1.11078 12.9934C1.09378 12.9978 1.07658 13 1.05937 13C1.00433 13 0.950493 12.9776 0.911636 12.9361C0.860839 12.8818 0.843839 12.8043 0.867315 12.7337L1.84785 9.7923C1.33178 8.89211 1.05937 7.86887 1.05937 6.82742ZM3.48795 6.92861C3.48795 7.37506 3.85102 7.73813 4.29747 7.73813C4.74392 7.73813 5.10699 7.37506 5.10699 6.92861C5.10699 6.48216 4.74392 6.11908 4.29747 6.11908C3.85102 6.11908 3.48795 6.48216 3.48795 6.92861ZM6.92842 7.73813C6.48197 7.73813 6.1189 7.37506 6.1189 6.92861C6.1189 6.48216 6.48197 6.11908 6.92842 6.11908C7.37487 6.11908 7.73795 6.48216 7.73795 6.92861C7.73795 7.37506 7.37487 7.73813 6.92842 7.73813ZM8.74985 6.92861C8.74985 7.37506 9.11292 7.73813 9.55937 7.73813C10.0058 7.73813 10.3689 7.37506 10.3689 6.92861C10.3689 6.48216 10.0058 6.11908 9.55937 6.11908C9.11292 6.11908 8.74985 6.48216 8.74985 6.92861Z" fill="white"/>
</svg>
