<svg width="49" height="49" viewBox="0 0 49 49" fill="none" xmlns="http://www.w3.org/2000/svg">
<path d="M24.5 0C10.9913 0 0 10.9913 0 24.5C0 38.0087 10.9913 49 24.5 49C38.0087 49 49 38.0087 49 24.5C49 10.9913 38.0087 0 24.5 0ZM35.7394 35.3658C35.6241 35.5305 35.4775 35.6708 35.3079 35.7787C35.1384 35.8867 34.9491 35.9601 34.7511 35.9948C34.5531 36.0295 34.3502 36.0248 34.1541 35.981C33.9579 35.9372 33.7723 35.8551 33.6079 35.7394C27.8657 31.703 18.3138 31.4794 11.8641 32.9831C11.6681 33.0286 11.465 33.035 11.2664 33.0019C11.0679 32.9689 10.8778 32.897 10.7071 32.7905C10.5363 32.684 10.3882 32.545 10.2712 32.3812C10.1542 32.2175 10.0705 32.0323 10.0251 31.8362C9.97965 31.6402 9.97326 31.4371 10.0063 31.2385C10.0393 31.04 10.1112 30.8499 10.2177 30.6792C10.3242 30.5084 10.4633 30.3603 10.627 30.2433C10.7908 30.1263 10.9759 30.0426 11.172 29.9972C18.2617 28.3557 28.8579 28.6558 35.3658 33.2343C35.6977 33.4675 35.9235 33.823 35.9936 34.2227C36.0636 34.6223 35.9722 35.0335 35.7394 35.3658ZM38.7284 29.3908C38.611 29.5541 38.4625 29.6927 38.2916 29.7986C38.1206 29.9046 37.9304 29.9758 37.7319 30.0082C37.5334 30.0406 37.3304 30.0336 37.1346 29.9876C36.9388 29.9416 36.754 29.8574 36.5907 29.7399C29.9298 24.9594 21.7468 23.7711 10.8259 26.0006C10.6289 26.041 10.4258 26.0423 10.2282 26.0042C10.0307 25.9661 9.84261 25.8895 9.67469 25.7787C9.50676 25.668 9.3623 25.5252 9.24954 25.3586C9.13679 25.192 9.05795 25.0048 9.01753 24.8078C8.97711 24.6107 8.97591 24.4076 9.01398 24.2101C9.05205 24.0126 9.12865 23.8245 9.23942 23.6565C9.35019 23.4886 9.49294 23.3441 9.65954 23.2314C9.82614 23.1186 10.0133 23.0398 10.2104 22.9994C22.0224 20.5892 30.9711 21.9367 38.3762 27.2501C38.706 27.4879 38.9283 27.8466 38.9943 28.2478C39.0603 28.6489 38.9647 29.0599 38.7284 29.3908V29.3908ZM41.748 21.3671C41.6351 21.5337 41.4904 21.6764 41.3223 21.7871C41.1542 21.8977 40.9659 21.9741 40.7682 22.012C40.5705 22.0498 40.3673 22.0483 40.1702 22.0075C39.9731 21.9668 39.786 21.8875 39.6196 21.7744C31.1763 16.0444 18.3413 16.0169 10.0328 18.9569C9.84292 19.0238 9.64177 19.0528 9.44077 19.042C9.23977 19.0312 9.04286 18.9809 8.86128 18.8941C8.6797 18.8072 8.51702 18.6854 8.38251 18.5356C8.248 18.3859 8.14431 18.2111 8.07734 18.0213C8.01038 17.8315 7.98146 17.6303 7.99224 17.4293C8.00302 17.2283 8.05329 17.0314 8.14016 16.8498C8.22704 16.6682 8.34883 16.5055 8.49858 16.371C8.64833 16.2365 8.82311 16.1328 9.01294 16.0659C18.0504 12.8717 32.0552 12.9391 41.3438 19.2386C41.6784 19.4682 41.9088 19.8208 41.9845 20.2195C42.0602 20.6183 41.9752 21.0308 41.748 21.3671V21.3671Z" fill="#1ED760"/>
</svg>
