<svg width="34" height="27" viewBox="0 0 34 27" fill="none" xmlns="http://www.w3.org/2000/svg">
<path d="M29.3431 4.24312V4.22652C29.6325 4.11344 29.8608 3.87379 30.0906 3.69639C31.128 2.89705 31.8028 1.84458 32.3003 0.499042C32.0186 0.653619 31.7359 0.808195 31.4532 0.962772C30.5813 1.40523 29.1019 2.04118 27.9633 2.1387C26.6219 0.916606 25.2183 -0.0445696 22.5801 0.00159589C22.3031 0.0347935 22.0261 0.0679912 21.7491 0.101189C21.2112 0.218937 20.6987 0.364695 20.2366 0.564919C18.3049 1.40316 16.9879 2.96708 16.382 5.13686C16.1408 6 16.0428 7.44254 16.3488 8.33421C15.259 8.33265 14.2039 8.16096 13.2915 7.93636C9.69527 7.05195 7.45547 5.85683 4.96876 3.91166C4.23841 3.34055 3.52206 2.6932 2.94162 1.97374C2.75437 1.74188 2.45922 1.53854 2.32695 1.26103C2.31554 1.25584 2.30464 1.25014 2.29375 1.24443C2.00483 1.77975 1.73354 2.35967 1.56288 3.01688C0.888556 5.60733 1.95451 7.78282 3.09153 9.19579C3.43596 9.62425 3.99461 9.88983 4.33748 10.2892H4.37068C4.11288 10.3847 3.66471 10.2524 3.44011 10.2062C2.90895 10.0968 2.45611 9.99617 2.01105 9.80891C1.77867 9.69842 1.54577 9.58794 1.31338 9.47745C1.30249 12.3392 2.74814 14.1993 4.52007 15.3083C5.09792 15.6699 5.90607 16.1569 6.74639 16.2026C6.29666 16.5823 4.37327 16.408 3.70569 16.3354C4.5403 18.4839 5.82256 19.9145 8.02553 20.6915C8.59404 20.8923 9.28756 21.0697 10.0527 21.0562C9.64651 21.5386 8.77974 21.9318 8.20812 22.2653C7.0296 22.9547 5.66124 23.4018 4.12066 23.74C3.50287 23.8749 2.84618 23.8474 2.17652 23.9547C1.43632 24.074 0.661878 23.892 0 23.8717C0.199186 23.9931 0.398891 24.1155 0.598077 24.2364C1.20549 24.6062 1.83988 24.9304 2.52562 25.2303C3.75963 25.7702 5.07457 26.1774 6.53008 26.539C9.46496 27.2672 13.6053 26.9399 16.1673 26.1416C23.3016 23.9179 27.8082 18.7277 29.5096 11.0834C29.8022 9.76845 29.8447 8.27507 29.8255 6.71012C30.1803 6.42846 30.5346 6.14679 30.8889 5.86513C31.767 5.16176 32.5902 4.18139 33.1982 3.21451V3.19791C32.0404 3.56101 30.8214 4.22755 29.3431 4.24312Z" fill="white"/>
</svg>
