<svg width="56" height="56" viewBox="0 0 56 56" fill="none" xmlns="http://www.w3.org/2000/svg">
<path d="M3.92789 17.3969C4.15281 13.9341 6.93691 11.2202 10.4028 11.0485C15.4217 10.7999 22.5951 10.5 28 10.5C33.4049 10.5 40.5783 10.7999 45.5972 11.0485C49.0631 11.2202 51.8472 13.9341 52.0721 17.3969C52.2876 20.7146 52.5 24.7969 52.5 28C52.5 31.2031 52.2876 35.2854 52.0721 38.6031C51.8472 42.0659 49.0631 44.7798 45.5972 44.9515C40.5783 45.2001 33.4049 45.5 28 45.5C22.5951 45.5 15.4217 45.2001 10.4028 44.9515C6.93691 44.7798 4.15281 42.0659 3.92789 38.6031C3.71239 35.2854 3.5 31.2031 3.5 28C3.5 24.7969 3.71239 20.7146 3.92789 17.3969Z" fill="#FC0D1B"/>
<path d="M22.75 21V35L36.75 28L22.75 21Z" fill="white"/>
</svg>
