<svg width="583" height="466" viewBox="0 0 583 466" fill="none" xmlns="http://www.w3.org/2000/svg">
<path d="M465.978 266.708L328.319 27.5043C307.986 -7.83654 274.666 -7.83654 254.354 27.5043L116.708 266.708C96.3617 302.063 113.008 330.978 153.687 330.978L295.715 328.418L428.986 330.978C469.665 330.978 486.318 302.063 465.978 266.708Z" fill="url(#paint0_linear_36_48705)"/>
<path style="mix-blend-mode:overlay" d="M426.32 197.844C398.566 203.724 389.507 259.111 364.744 239.588C309.076 195.698 307.398 246.966 249.185 247.18C208.602 247.331 192.665 208.306 149.275 210.093L116.684 266.731C96.3379 302.085 112.984 331 153.663 331H428.969C469.648 331 486.301 302.085 465.961 266.731L426.32 197.844Z" fill="url(#paint1_linear_36_48705)"/>
<path d="M310.958 220.98L328.925 251.117L339.022 205.494L320.533 188.386C337.378 128.106 291.293 93.5519 291.293 93.5519C291.293 93.5519 245.206 128.106 262.045 188.386L243.562 205.494L253.653 251.117L271.62 220.98C294.147 273.201 255.8 330.948 255.8 330.948H326.792C326.792 330.948 288.431 273.201 310.972 220.98H310.958ZM291.293 152.135C294.132 152.135 296.907 152.98 299.268 154.561C301.629 156.143 303.47 158.391 304.558 161.022C305.646 163.654 305.933 166.549 305.381 169.343C304.83 172.137 303.466 174.705 301.46 176.721C299.455 178.738 296.899 180.113 294.115 180.673C291.332 181.233 288.445 180.952 285.82 179.867C283.195 178.782 280.95 176.94 279.367 174.575C277.785 172.21 276.937 169.428 276.93 166.579C276.925 164.684 277.292 162.806 278.012 161.053C278.731 159.301 279.788 157.708 281.123 156.366C282.457 155.024 284.042 153.96 285.787 153.234C287.533 152.508 289.403 152.134 291.293 152.135Z" fill="white"/>
<path fill-rule="evenodd" clip-rule="evenodd" d="M223.171 330.97C274.567 324.952 280.162 228.455 270.58 219.96C271.13 220.275 271.85 221.097 272.687 222.373C272.389 221.7 272.066 221.143 271.719 220.709C272.214 221.306 272.701 222.123 273.17 223.14C280.998 236.026 297.155 284.266 281.604 330.97H255.798C255.798 330.971 255.797 330.972 255.795 330.973H223.171C223.181 330.972 223.192 330.971 223.203 330.97H223.171ZM271.262 220.222C271.419 220.362 271.571 220.524 271.719 220.709C271.568 220.526 271.416 220.363 271.262 220.222Z" fill="url(#paint2_linear_36_48705)"/>
<path fill-rule="evenodd" clip-rule="evenodd" d="M311.927 219.71C311.772 219.848 311.619 220.01 311.471 220.194C311.623 220.011 311.775 219.85 311.927 219.71ZM331.36 315.215C338.665 323.693 347.924 329.622 359.475 330.975H302.755C285.16 278.051 306.094 223.017 311.645 219.829C310.906 220.484 310.259 221.665 309.719 223.288C310.284 221.958 310.873 220.915 311.471 220.194C304.581 228.791 306.77 286.561 331.36 315.215Z" fill="url(#paint3_linear_36_48705)"/>
<path d="M275.767 163.378C275.772 165.884 276.383 168.352 277.549 170.568C277.167 169.271 276.972 167.926 276.971 166.573C276.942 164.492 277.362 162.429 278.204 160.526C279.045 158.624 280.288 156.927 281.845 155.552C283.403 154.177 285.239 153.157 287.227 152.563C289.215 151.967 291.307 151.812 293.361 152.106C295.415 152.4 297.381 153.137 299.124 154.266C300.867 155.396 302.345 156.89 303.457 158.647C304.569 160.405 305.288 162.382 305.566 164.445C305.842 166.508 305.671 168.606 305.063 170.597C306.152 168.502 306.752 166.186 306.818 163.824C306.884 161.463 306.414 159.117 305.443 156.964C304.473 154.811 303.028 152.908 301.216 151.398C299.405 149.888 297.275 148.811 294.989 148.248C292.702 147.685 290.317 147.651 288.015 148.147C285.713 148.645 283.553 149.661 281.7 151.118C279.846 152.575 278.347 154.436 277.316 156.56C276.285 158.684 275.748 161.015 275.747 163.378H275.767Z" fill="url(#paint4_linear_36_48705)"/>
<path d="M339.052 205.494L320.563 188.386C337.409 128.106 291.322 93.5519 291.322 93.5519C318.658 119.776 323.39 170.244 306.868 191.664L330.695 216.073L328.955 251.117L339.052 205.494Z" fill="url(#paint5_linear_36_48705)"/>
<path d="M243.562 205.494L262.052 188.386C245.206 128.106 291.293 93.5519 291.293 93.5519C263.957 119.776 259.225 170.244 275.754 191.664L251.92 216.073L253.66 251.117L243.562 205.494Z" fill="url(#paint6_linear_36_48705)"/>
<path d="M31.2281 394.439C27.7667 396.47 29.4974 393.235 6.01987 443.789C0.451491 455.751 0 456.879 0 459.211C0 464.327 6.47136 467.336 11.814 464.778C14.222 463.575 15.2002 462.296 17.9091 456.729L21.0696 450.184H52.4482L54.9314 455.826C57.7908 462.371 60.1235 465.004 63.5849 465.681C69.2286 466.734 74.5712 462.521 73.3672 457.932C73.1415 456.954 67.1969 443.714 60.1987 428.668C53.1254 413.547 47.4065 400.984 47.4065 400.758C47.4065 399.63 43.3431 395.116 41.3866 394.138C38.4519 392.634 33.937 392.709 31.2281 394.439ZM41.6124 424.456C43.9451 430.098 45.9015 435.213 45.9015 435.665C45.9015 436.417 43.5688 436.643 36.947 436.643C31.9806 436.643 27.7667 436.342 27.5409 436.041C27.0142 435.138 35.5925 414.074 36.4955 414.074C36.947 414.074 39.2044 418.738 41.6124 424.456V424.456Z" fill="#131F7C"/>
<path d="M85.5577 394.213C84.337 394.9 83.363 395.952 82.7735 397.223C82.322 398.351 82.021 412.043 82.021 429.571C82.021 463.575 82.021 463.65 86.9121 465.23C90.5241 466.433 94.136 465.681 96.3935 463.274C98.1994 461.393 98.1994 461.017 98.5756 444.316L98.9519 427.239L105.95 439.276C114.378 453.72 115.507 455.074 119.72 455.074C123.784 455.074 125.063 453.569 133.566 438.899L140.339 427.239L140.715 443.789C141.166 462.597 141.467 463.725 146.659 465.305C148.482 465.996 150.499 465.969 152.303 465.23C157.42 463.575 157.269 464.628 157.269 429.27V397.373L155.087 395.191C153.206 393.386 152.303 393.01 149.067 393.01C145.982 393.01 144.853 393.386 142.972 395.041C141.091 396.846 130.707 414.676 122.956 429.421C121.752 431.753 120.398 433.633 119.946 433.633C119.495 433.633 118.592 432.505 117.915 431.151C117.237 429.872 115.206 426.186 113.475 423.026C111.669 419.867 107.53 412.494 104.295 406.626C97.8232 394.815 95.942 393.01 90.6746 393.01C88.9102 393.099 87.1765 393.506 85.5577 394.213Z" fill="#131F7C"/>
<path d="M246.288 393.762C245.059 394.412 244.022 395.371 243.278 396.546C242.074 398.426 241.924 401.059 241.698 426.487C241.547 441.758 241.698 455.751 241.924 457.556C242.256 459.632 243.14 461.58 244.482 463.198C246.363 465.23 247.116 465.531 250.803 465.531C255.468 465.606 257.575 464.252 259.306 460.189C260.585 457.18 260.811 403.391 259.607 398.878C258.478 394.966 255.694 393.01 251.405 393.085C249.675 393.057 247.951 393.285 246.288 393.762V393.762Z" fill="#131F7C"/>
<path d="M341.854 394.514C340.495 395.337 339.439 396.578 338.844 398.05C338.467 399.179 338.242 413.623 338.242 430.023C338.242 459.136 338.317 459.888 339.822 461.995C341.096 463.43 342.696 464.539 344.487 465.23C348.852 466.734 353.291 465.23 355.248 461.468C356.602 459.061 356.678 456.654 356.678 429.27C356.678 397.524 356.602 396.847 352.765 394.214C350.432 392.559 344.788 392.709 341.854 394.514Z" fill="#131F7C"/>
<path d="M391.518 394.59C381.359 397.749 372.781 406.25 369.771 415.804C368.191 420.995 367.589 432.129 368.642 437.771C369.846 444.391 373.985 452.29 378.5 456.503C392.496 469.593 416.952 469.066 429.97 455.45C437.043 448.077 439.752 440.555 439.752 428.744C439.602 411.667 431.324 399.63 416.199 394.514C410.029 392.483 398.14 392.483 391.518 394.59ZM410.48 409.485C417.629 412.72 421.015 420.167 420.488 431.301C419.811 444.09 414.393 450.184 403.482 450.184C396.484 450.184 392.346 447.701 389.336 441.457C387.454 437.621 387.229 436.342 387.229 429.571C387.229 421.07 388.809 415.955 392.797 412.193C397.011 408.131 404.912 406.927 410.48 409.485V409.485Z" fill="#131F7C"/>
<path d="M453.222 395.643L450.663 398.201L450.889 421.371C451.115 443.639 451.19 444.692 452.921 448.98C457.586 460.641 469.4 466.809 485.202 465.756C500.703 464.778 509.733 457.857 512.818 444.617C513.796 440.479 513.947 435.589 513.796 418.437L513.571 397.373L511.088 395.191C509.131 393.386 508.002 393.01 504.917 393.01C501.832 393.01 500.703 393.386 498.747 395.191L496.264 397.373L495.887 419.49C495.511 441.156 495.511 441.608 493.705 444.466C490.996 448.754 488.137 450.184 482.267 450.184C476.323 450.184 473.162 448.454 470.754 443.789C469.325 441.006 469.174 439.2 468.798 419.114L468.422 397.373L465.939 395.191C463.907 393.386 462.853 393.01 459.693 393.01C456.307 393.01 455.554 393.311 453.222 395.643Z" fill="#131F7C"/>
<path d="M542.541 394.74C535.844 397.147 535.016 397.674 531.329 401.661C527.191 406.175 525.836 409.485 525.836 415.578C525.761 421.747 527.642 426.261 531.63 429.722C535.543 433.182 539.531 434.762 550.141 437.019C559.322 438.975 561.429 439.652 563.836 441.758C566.696 444.316 564.514 448.529 559.397 450.184C555.258 451.538 545.325 450.635 538.553 448.378C531.63 445.971 529.448 445.896 527.115 448.228C523.729 451.613 523.729 456.428 527.191 459.587C530.577 462.747 543.444 465.982 552.775 465.982C562.633 465.982 572.189 462.597 577.381 457.255C583.1 451.312 584.68 441.683 581.068 434.687C577.983 428.668 572.565 425.659 559.472 422.8C547.432 420.092 545.702 419.49 544.347 417.384C542.541 414.751 544.046 410.99 547.508 409.334C550.894 407.679 559.623 407.679 565.116 409.184C573.092 411.441 575.274 411.441 577.456 409.334C578.791 407.957 579.525 406.106 579.497 404.188C579.469 402.27 578.681 400.441 577.306 399.103C573.544 395.342 567.448 393.536 556.838 393.235C548.411 393.01 546.906 393.16 542.541 394.74Z" fill="#131F7C"/>
<path d="M175.479 394.891C170.964 396.846 170.814 397.975 170.814 429.496C170.814 453.118 170.964 458.158 171.943 459.964C174.2 464.402 174.727 464.477 194.517 464.477C214.834 464.477 218.07 463.951 223.638 459.738C233.797 452.065 233.27 435.289 222.66 429.872C219.951 428.443 218.747 426.863 220.403 426.863C220.779 426.863 222.209 425.96 223.563 424.832C230.486 419.039 230.787 405.949 224.09 400.081C217.995 394.74 213.405 393.762 193.765 393.762C181.8 393.837 177.361 394.063 175.479 394.891ZM207.686 408.432C210.395 409.861 211.448 411.667 211.448 415.202C211.448 420.845 207.159 422.65 194.893 422.199L188.497 421.973L188.272 415.654C188.121 412.193 188.196 408.883 188.422 408.281C189.024 406.777 204.751 406.927 207.686 408.432ZM211.599 437.997C212.953 439.276 213.329 440.555 213.329 443.488C213.329 450.259 209.115 452.065 194.893 451.538L188.497 451.312L188.272 443.564L188.046 435.815L198.957 436.041C209.191 436.266 210.018 436.417 211.599 437.997Z" fill="#131F7C"/>
<path d="M268.637 395.944C267.237 397.282 266.409 399.109 266.324 401.044C266.24 402.978 266.907 404.871 268.186 406.325C269.991 408.432 270.142 408.432 279.849 408.657L289.707 408.958V432.731C289.707 446.197 290.008 457.782 290.459 459.287C292.039 464.854 298.059 467.487 303.477 464.854C308.368 462.521 308.519 461.619 308.519 433.784V408.958L318.376 408.657C328.083 408.432 328.234 408.432 330.04 406.325C331.242 404.921 331.902 403.133 331.902 401.285C331.902 399.437 331.242 397.649 330.04 396.245L328.234 394.138L299.489 393.913L270.819 393.687L268.637 395.944Z" fill="#131F7C"/>
<defs>
<linearGradient id="paint0_linear_36_48705" x1="291.34" y1="-63.6728" x2="291.34" y2="403.067" gradientUnits="userSpaceOnUse">
<stop stop-color="#CAF4FF"/>
<stop offset="1" stop-color="#255FA0"/>
</linearGradient>
<linearGradient id="paint1_linear_36_48705" x1="330.799" y1="527.487" x2="257.421" y2="98.3203" gradientUnits="userSpaceOnUse">
<stop stop-color="#231F20"/>
<stop offset="1" stop-color="#231F20"/>
</linearGradient>
<linearGradient id="paint2_linear_36_48705" x1="278.158" y1="343.408" x2="228.877" y2="238.477" gradientUnits="userSpaceOnUse">
<stop stop-color="white"/>
<stop offset="1" stop-color="#CBF4FF"/>
</linearGradient>
<linearGradient id="paint3_linear_36_48705" x1="304.431" y1="343.408" x2="353.704" y2="238.477" gradientUnits="userSpaceOnUse">
<stop stop-color="white"/>
<stop offset="1" stop-color="#CBF4FF"/>
</linearGradient>
<linearGradient id="paint4_linear_36_48705" x1="291.306" y1="146.174" x2="291.306" y2="171.708" gradientUnits="userSpaceOnUse">
<stop stop-color="#CBF4FF"/>
<stop offset="1" stop-color="white"/>
</linearGradient>
<linearGradient id="paint5_linear_36_48705" x1="325.275" y1="226.48" x2="306.929" y2="87.4397" gradientUnits="userSpaceOnUse">
<stop stop-color="white"/>
<stop offset="1" stop-color="#CBF4FF"/>
</linearGradient>
<linearGradient id="paint6_linear_36_48705" x1="272.329" y1="124.4" x2="252.482" y2="239.854" gradientUnits="userSpaceOnUse">
<stop stop-color="#CBF4FF"/>
<stop offset="1" stop-color="white"/>
</linearGradient>
</defs>
</svg>
