<svg width="88" height="95" viewBox="0 0 88 95" fill="none" xmlns="http://www.w3.org/2000/svg">
<g filter="url(#filter0_d_1246_4755)">
<path fill-rule="evenodd" clip-rule="evenodd" d="M25 23C25 18.5817 28.5817 15 33 15H55C59.4183 15 63 18.5817 63 23V44.6705C63 47.4806 61.5256 50.0846 59.116 51.5304L48.116 58.1304C45.5825 59.6505 42.4175 59.6505 39.884 58.1304L28.884 51.5304C26.4744 50.0846 25 47.4806 25 44.6705V23Z" fill="url(#paint0_linear_1246_4755)"/>
</g>
<mask id="mask0_1246_4755" style="mask-type:alpha" maskUnits="userSpaceOnUse" x="25" y="15" width="38" height="45">
<path fill-rule="evenodd" clip-rule="evenodd" d="M25 23C25 18.5817 28.5817 15 33 15H55C59.4183 15 63 18.5817 63 23V44.6705C63 47.4806 61.5256 50.0846 59.116 51.5304L48.116 58.1304C45.5825 59.6505 42.4175 59.6505 39.884 58.1304L28.884 51.5304C26.4744 50.0846 25 47.4806 25 44.6705V23Z" fill="white"/>
</mask>
<g mask="url(#mask0_1246_4755)">
<g filter="url(#filter1_d_1246_4755)">
<path d="M61.6174 12.7865L56.5641 9.47903C55.2135 8.595 53.3973 8.9699 52.5063 10.3131L43.4102 23.4424C43.1909 23.7588 43.1749 24.1736 43.3693 24.506L48.9074 33.9814C49.0871 34.2888 49.412 34.492 49.768 34.4941C49.7704 34.4941 49.7728 34.4941 49.7752 34.4941C50.1687 34.4941 50.5555 34.3059 50.7941 33.9564L62.4535 16.8742L62.4668 16.8543C63.3541 15.4987 62.973 13.6738 61.6174 12.7865Z" fill="#FF3636"/>
<path d="M50.7909 32.5624L35.4945 10.3738C35.0644 9.72471 34.4085 9.27982 33.6456 9.1205C32.8772 8.96011 32.0925 9.10841 31.4358 9.53825L26.3825 12.8458C25.0268 13.7332 24.6459 15.558 25.5332 16.9137L25.5424 16.9279L37.1639 33.667C37.294 33.8545 37.5043 33.9703 37.7323 33.98L49.7776 34.4941C50.0188 34.4941 50.2624 34.4235 50.4759 34.2762C51.0361 33.8901 51.1772 33.1227 50.7909 32.5624Z" fill="#FF712F"/>
<path d="M54.5115 40.5939C54.5115 46.3937 49.7927 51.1126 43.9928 51.1126C38.1929 51.1126 33.4741 46.3938 33.4741 40.5939C33.4741 34.7932 38.1929 30.0744 43.9928 30.0744C49.7927 30.0744 54.5115 34.7931 54.5115 40.5939Z" fill="#FFD561"/>
<path d="M49.4402 40.3786L47.7594 42.0167L48.1561 44.3293C48.2498 44.8732 48.0305 45.4121 47.5843 45.7357C47.1375 46.0602 46.5574 46.1021 46.0694 45.845L43.9927 44.7531L41.9159 45.8458C41.7039 45.9566 41.474 46.0126 41.2456 46.0126C40.9481 46.0126 40.6541 45.9189 40.4018 45.7357C39.955 45.4121 39.7364 44.8732 39.8292 44.3293L40.226 42.0167L38.546 40.3794C38.1509 39.9942 38.0112 39.4298 38.182 38.9049C38.3521 38.3807 38.7965 38.0053 39.3428 37.9264L41.6645 37.5888L42.7029 35.4849C42.9468 34.9903 43.4414 34.6831 43.9927 34.6831C44.2679 34.6831 44.5299 34.7603 44.7526 34.8983C44.9761 35.0372 45.1601 35.2376 45.2824 35.4849L46.3209 37.5888L48.6425 37.9264C49.1888 38.0053 49.6332 38.3807 49.8033 38.9049C49.9741 39.429 49.8345 39.9942 49.4402 40.3786Z" fill="#FFF2D4"/>
</g>
</g>
<defs>
<filter id="filter0_d_1246_4755" x="0" y="0" width="88" height="94.2705" filterUnits="userSpaceOnUse" color-interpolation-filters="sRGB">
<feFlood flood-opacity="0" result="BackgroundImageFix"/>
<feColorMatrix in="SourceAlpha" type="matrix" values="0 0 0 0 0 0 0 0 0 0 0 0 0 0 0 0 0 0 127 0" result="hardAlpha"/>
<feOffset dy="10"/>
<feGaussianBlur stdDeviation="12.5"/>
<feColorMatrix type="matrix" values="0 0 0 0 1 0 0 0 0 0.836855 0 0 0 0 0.330297 0 0 0 0.29764 0"/>
<feBlend mode="normal" in2="BackgroundImageFix" result="effect1_dropShadow_1246_4755"/>
<feBlend mode="normal" in="SourceGraphic" in2="effect1_dropShadow_1246_4755" result="shape"/>
</filter>
<filter id="filter1_d_1246_4755" x="20.0542" y="9.00004" width="47.8916" height="56.1125" filterUnits="userSpaceOnUse" color-interpolation-filters="sRGB">
<feFlood flood-opacity="0" result="BackgroundImageFix"/>
<feColorMatrix in="SourceAlpha" type="matrix" values="0 0 0 0 0 0 0 0 0 0 0 0 0 0 0 0 0 0 127 0" result="hardAlpha"/>
<feOffset dy="9"/>
<feGaussianBlur stdDeviation="2.5"/>
<feColorMatrix type="matrix" values="0 0 0 0 1 0 0 0 0 0.462843 0 0 0 0 0.462843 0 0 0 0.597574 0"/>
<feBlend mode="normal" in2="BackgroundImageFix" result="effect1_dropShadow_1246_4755"/>
<feBlend mode="normal" in="SourceGraphic" in2="effect1_dropShadow_1246_4755" result="shape"/>
</filter>
<linearGradient id="paint0_linear_1246_4755" x1="25" y1="15" x2="25" y2="60.6" gradientUnits="userSpaceOnUse">
<stop stop-color="#FFCA00"/>
<stop offset="1" stop-color="#FF9C52"/>
</linearGradient>
</defs>
</svg>
