<svg width="88" height="95" viewBox="0 0 88 95" fill="none" xmlns="http://www.w3.org/2000/svg">
<g filter="url(#filter0_d_76_3416)">
<path fill-rule="evenodd" clip-rule="evenodd" d="M25 23C25 18.5817 28.5817 15 33 15H55C59.4183 15 63 18.5817 63 23V44.6705C63 47.4806 61.5256 50.0846 59.116 51.5304L48.116 58.1304C45.5825 59.6505 42.4175 59.6505 39.884 58.1304L28.884 51.5304C26.4744 50.0846 25 47.4806 25 44.6705V23Z" fill="url(#paint0_linear_76_3416)"/>
</g>
<mask id="mask0_76_3416" style="mask-type:alpha" maskUnits="userSpaceOnUse" x="25" y="15" width="38" height="45">
<path fill-rule="evenodd" clip-rule="evenodd" d="M25 23C25 18.5817 28.5817 15 33 15H55C59.4183 15 63 18.5817 63 23V44.6705C63 47.4806 61.5256 50.0846 59.116 51.5304L48.116 58.1304C45.5825 59.6505 42.4175 59.6505 39.884 58.1304L28.884 51.5304C26.4744 50.0846 25 47.4806 25 44.6705V23Z" fill="white"/>
</mask>
<g mask="url(#mask0_76_3416)">
<g filter="url(#filter1_d_76_3416)">
<path d="M61.6174 12.7865L56.5642 9.47899C55.2136 8.59496 53.3974 8.96986 52.5064 10.3131L43.4102 23.4423C43.191 23.7588 43.175 24.1736 43.3694 24.5059L48.9075 33.9813C49.0871 34.2887 49.4121 34.492 49.7681 34.494C49.7705 34.494 49.7729 34.494 49.7752 34.494C50.1688 34.494 50.5556 34.3059 50.7942 33.9563L62.4536 16.8742L62.4669 16.8543C63.3542 15.4986 62.9731 13.6738 61.6174 12.7865Z" fill="#FF3636"/>
<path d="M50.7909 32.5622L35.4945 10.3737C35.0644 9.72458 34.4085 9.27968 33.6456 9.12036C32.8772 8.95997 32.0924 9.10827 31.4357 9.53811L26.3825 12.8457C25.0268 13.7331 24.6458 15.5579 25.5331 16.9136L25.5424 16.9277L37.1639 33.6669C37.294 33.8543 37.5043 33.9701 37.7323 33.9798L49.7776 34.494C50.0187 34.494 50.2623 34.4233 50.4759 34.2761C51.0361 33.8899 51.1771 33.1225 50.7909 32.5622Z" fill="#FF712F"/>
<path d="M54.5115 40.5937C54.5115 46.3936 49.7928 51.1124 43.9928 51.1124C38.1929 51.1124 33.4742 46.3937 33.4742 40.5937C33.4742 34.793 38.1929 30.0742 43.9928 30.0742C49.7928 30.0742 54.5115 34.793 54.5115 40.5937Z" fill="#FFD561"/>
<path d="M49.4403 40.3787L47.7595 42.0168L48.1563 44.3293C48.25 44.8732 48.0306 45.4121 47.5845 45.7358C47.1376 46.0602 46.5576 46.1022 46.0696 45.845L43.9928 44.7532L41.9161 45.8458C41.7041 45.9567 41.4742 46.0126 41.2457 46.0126C40.9483 46.0126 40.6543 45.9189 40.402 45.7358C39.9551 45.4121 39.7366 44.8732 39.8294 44.3293L40.2262 42.0168L38.5462 40.3795C38.151 39.9942 38.0114 39.4298 38.1822 38.9049C38.3523 38.3808 38.7967 38.0053 39.343 37.9264L41.6646 37.5888L42.7031 35.4849C42.947 34.9903 43.4416 34.6831 43.9928 34.6831C44.2681 34.6831 44.5301 34.7603 44.7528 34.8984C44.9762 35.0372 45.1602 35.2376 45.2826 35.4849L46.321 37.5888L48.6427 37.9264C49.189 38.0053 49.6334 38.3807 49.8035 38.9049C49.9743 39.429 49.8346 39.9942 49.4403 40.3787Z" fill="#FFF2D4"/>
</g>
</g>
<defs>
<filter id="filter0_d_76_3416" x="0" y="0" width="88" height="94.2705" filterUnits="userSpaceOnUse" color-interpolation-filters="sRGB">
<feFlood flood-opacity="0" result="BackgroundImageFix"/>
<feColorMatrix in="SourceAlpha" type="matrix" values="0 0 0 0 0 0 0 0 0 0 0 0 0 0 0 0 0 0 127 0" result="hardAlpha"/>
<feOffset dy="10"/>
<feGaussianBlur stdDeviation="12.5"/>
<feColorMatrix type="matrix" values="0 0 0 0 1 0 0 0 0 0.836855 0 0 0 0 0.330297 0 0 0 0.29764 0"/>
<feBlend mode="normal" in2="BackgroundImageFix" result="effect1_dropShadow_76_3416"/>
<feBlend mode="normal" in="SourceGraphic" in2="effect1_dropShadow_76_3416" result="shape"/>
</filter>
<filter id="filter1_d_76_3416" x="20.0542" y="9" width="47.8917" height="56.1123" filterUnits="userSpaceOnUse" color-interpolation-filters="sRGB">
<feFlood flood-opacity="0" result="BackgroundImageFix"/>
<feColorMatrix in="SourceAlpha" type="matrix" values="0 0 0 0 0 0 0 0 0 0 0 0 0 0 0 0 0 0 127 0" result="hardAlpha"/>
<feOffset dy="9"/>
<feGaussianBlur stdDeviation="2.5"/>
<feColorMatrix type="matrix" values="0 0 0 0 1 0 0 0 0 0.462843 0 0 0 0 0.462843 0 0 0 0.597574 0"/>
<feBlend mode="normal" in2="BackgroundImageFix" result="effect1_dropShadow_76_3416"/>
<feBlend mode="normal" in="SourceGraphic" in2="effect1_dropShadow_76_3416" result="shape"/>
</filter>
<linearGradient id="paint0_linear_76_3416" x1="25" y1="15" x2="25" y2="60.6" gradientUnits="userSpaceOnUse">
<stop stop-color="#FFCA00"/>
<stop offset="1" stop-color="#FF9C52"/>
</linearGradient>
</defs>
</svg>
