<svg width="128" height="85" viewBox="0 0 128 85" fill="none" xmlns="http://www.w3.org/2000/svg">
<path d="M4.30083 53.4917C7.38944 48.6267 11.6204 44.7506 16.0131 41.262C19.6936 38.336 23.7542 35.3235 25.2723 30.6553C26.1023 28.1103 26.0783 25.2968 27.011 22.795C28.2539 19.46 32.1048 15.4195 35.3856 13.963C40.4051 11.7339 46.4709 15.1144 51.6827 13.3765C53.8364 12.658 54.4043 11.2881 55.8875 9.84891C57.4755 8.30801 59.3845 6.96622 61.2193 5.73048C64.8169 3.3066 68.8011 1.35884 73.091 0.512643C80.6465 -0.978476 88.7066 1.15108 94.9428 5.8019C98.691 8.59802 101.791 12.2663 104.108 16.3891C106.323 20.3322 107.302 24.7038 109.353 28.6859C113.197 36.148 121.176 40.2838 124.951 47.7891C127.727 53.3143 127.841 60.0665 126.379 66.1587C124.918 72.2487 122.011 77.8041 118.957 83.1561C118.942 83.1799 118.929 83.2016 118.915 83.2232H113.874C94.6348 83.1583 11.7427 82.9029 9.77251 83.2882H5.94125C3.14753 80.8773 0.598438 74.2181 0.0894963 70.197C-0.653166 64.3451 1.21442 58.3568 4.30083 53.4917Z" fill="#EDDCFF"/>
<path d="M44.5203 47.3972C45.2192 48.4836 47.0453 49.7497 48.3406 49.7324C52.7529 49.6523 54.2054 46.6744 54.6816 45.5901C54.5921 45.5685 54.4413 45.5512 54.3343 45.5382C53.5217 45.4213 52.6917 44.6249 52.4493 43.7268C52.1369 42.5581 51.7525 40.2727 51.7983 38.8206L46.2175 41.8807C46.2262 42.3006 46.2546 42.7594 46.2939 43.2225C46.3223 43.5038 46.3507 43.7809 46.3835 44.0492C46.414 44.3068 46.449 44.5513 46.4818 44.7764C46.5844 45.5338 46.2437 46.2848 45.5993 46.7025L44.5203 47.3972Z" fill="#FE8E68"/>
<path d="M44.0399 35.4964C44.3413 36.2798 44.2146 37.1693 43.9088 37.9505C43.6926 38.5024 43.212 38.0155 42.6135 38.0263C41.6874 38.0414 40.9644 37.087 40.4052 34.5571C40.0492 32.7002 39.9596 31.7588 40.0317 31.5792C40.2873 30.9364 41.1304 30.5923 41.825 30.5317" fill="#3D302A"/>
<path d="M42.6312 29.9325C41.1721 31.6747 40.6413 36.5766 41.8733 39.9917C42.7492 42.4199 43.767 43.9867 44.9553 43.9369C46.7595 43.8612 50.2566 42.3917 51.3946 41.1646C53.4457 38.955 52.8494 34.6223 52.4256 31.8955C52.0412 29.4175 50.8704 26.1993 47.7272 26.8118C45.6608 27.21 43.9396 28.3678 42.6312 29.9325Z" fill="#FE8E68"/>
<path d="M50.9183 31.4991C50.5951 31.8822 50.025 31.9666 49.5553 32.0423C48.9241 32.1441 48.6117 32.3561 48.2841 32.9253C48.0766 33.2889 47.8691 33.6871 47.4977 33.8841C47.323 33.9771 47.0565 33.9901 46.9713 33.8126C47.1373 33.7023 47.1941 33.4772 47.1526 33.2824C47.1111 33.0898 46.991 32.9232 46.8643 32.7695C46.7572 32.9123 46.7463 33.1028 46.6873 33.2738C46.6087 33.4988 46.4405 33.6893 46.2265 33.7953C46.1915 33.8126 46.1544 33.8278 46.1172 33.8213C46.067 33.8148 46.0277 33.7715 45.9949 33.7326C45.7656 33.4599 45.5406 32.9405 45.2217 32.7738C45.1583 33.0703 45.0426 33.3062 44.8591 33.5508C44.6975 33.765 44.5052 33.9858 44.2409 34.0356C44.1557 34.0529 44.0487 34.0399 44.0094 33.9641C43.9592 33.8711 44.0378 33.778 44.0247 33.6828C44.0138 33.5941 43.9723 33.5551 43.9264 33.4794C43.8084 33.2867 43.7036 33.1006 43.5485 32.9318C43.2362 33.2846 42.8954 33.6092 42.5306 33.9079C42.4498 33.9728 42.3319 34.0377 42.251 33.9728C42.2073 33.9382 42.1964 33.8797 42.1877 33.8235C42.1418 33.5486 42.0981 33.2738 42.0523 32.9989C42.0261 32.8453 41.9365 32.644 41.7836 32.6829C41.7093 32.7024 41.6656 32.7738 41.6241 32.8388C41.5739 32.921 40.6762 33.8581 40.6587 33.7867C40.5189 33.2543 40.2327 32.7695 40.0929 32.2371C39.1952 28.8091 43.2056 26.0541 46.2701 26.0389C46.9516 26.0346 47.5895 26.1774 48.2513 26.3224C48.9568 26.4782 49.6864 26.5929 50.3264 26.9414C51.2241 27.4283 51.9035 28.3135 51.7287 29.3696" fill="#3D302A"/>
<path d="M49.4417 30.5923C48.9961 31.0922 48.8781 31.7956 48.8366 32.46C48.7754 33.462 48.8584 34.503 49.3259 35.3924C49.4591 35.6456 49.5574 36.8987 49.7627 36.8294C49.8283 36.8078 49.8174 35.8361 49.9899 35.3124C50.2564 34.5008 51.484 34.1913 52.0366 34.7042C52.9191 35.5201 52.4014 36.5113 52.1087 37.1281C51.9339 37.5003 51.6565 37.918 51.6085 38.3119C51.5495 38.8162 51.532 40.6536 51.864 41.0821C52.1415 41.4413 52.4363 39.7056 52.6875 39.3637C54.5464 36.8165 56.3288 30.3304 53.155 28.9237C52.6722 28.7094 51.1825 28.5991 50.7304 28.8718" fill="#3D302A"/>
<path d="M37.69 82.1518C37.5065 82.1821 37.3208 82.2081 37.1286 82.2146C36.1063 82.2471 35.119 82.0242 34.1208 81.8553C33.2427 81.706 33.0046 81.6238 33.0221 80.5742C33.175 72.2615 34.4091 63.9706 36.6284 55.9523C36.967 54.7274 37.3361 53.4938 37.9848 52.3987C39.0923 50.531 41.6348 48.9187 43.5854 48.0141C43.8606 47.8864 45.0008 48.6049 45.2782 48.4815C45.5207 48.3733 45.7347 48.2045 45.9794 48.0985C46.6958 47.789 47.1764 48.4361 47.7749 48.7066C48.085 48.8451 48.4302 48.9339 48.7709 48.9187C49.0483 48.9079 49.2995 48.7412 49.5529 48.8711C50.6931 49.4554 53.524 45.1184 53.524 45.1184L54.7493 46.3888L58.3381 50.1133L67.3069 62.3561C67.3069 62.3561 68.9342 72.3892 70.0526 78.9662C70.247 80.1002 71.0158 82.5522 71.1687 83.4114C71.136 83.2253 63.5128 83.1755 63.1021 83.1755C57.803 83.1755 52.8665 83.1755 47.5652 83.1755C46.6936 83.1755 44.3499 83.5412 43.7383 82.9071C42.9847 82.128 42.1132 78.5528 42.0673 77.5508C41.9166 74.1812 42.1503 70.8375 42.1962 67.4484C42.1765 68.827 41.7768 70.0736 41.6064 71.424C41.3858 73.1618 41.0713 74.8975 40.7873 76.6267C40.5601 78.0161 40.3417 79.4098 40.167 80.8079C40.0883 81.4377 40.1888 81.8121 39.6515 82.0588C39.2037 82.2579 38.2186 82.0631 37.69 82.1518Z" fill="#BC744A"/>
<path d="M40.5691 79.2732C40.9841 79.1044 43.5463 78.4747 44.7017 78.2366C45.3068 78.1132 48.0503 77.4077 48.6859 77.4077C49.3215 77.4077 50.1865 78.308 50.1865 78.308L49.9572 81.4049C49.3456 81.3444 48.5265 81.6582 48.0874 81.7188C47.6484 81.7794 46.1565 81.788 45.2391 81.3314C45.1867 81.3054 45.1386 81.2773 45.0906 81.2491C44.7214 81.5738 44.2583 81.8897 43.745 81.9157C43.745 81.9157 43.3431 81.8746 43.3824 81.7144C43.3999 81.6365 43.6664 81.234 43.9329 80.8401C43.5397 81.2361 42.8975 81.8789 42.157 81.9157C42.157 81.9157 41.7551 81.8746 41.7944 81.7144C41.8163 81.6192 42.2007 81.05 42.5109 80.5977C42.5065 80.602 42.5 80.6042 42.4978 80.6085C42.1723 80.892 41.3991 81.8702 40.4839 81.9157C40.4839 81.9157 40.082 81.8746 40.1213 81.7144C40.1344 81.656 40.2873 81.4158 40.4729 81.1366C40.2392 81.3141 39.9531 81.5023 39.6058 81.6733C38.6163 82.1581 38.0527 81.7902 38.0527 81.6733C38.0506 81.5543 40.154 79.442 40.5691 79.2732Z" fill="#FE8E68"/>
<path d="M49.4788 75.6763C49.4788 75.6763 47.8843 76.5722 48.0262 78.4767C48.1682 80.3812 48.7449 82.5887 51.152 82.3571C53.5591 82.1255 49.4788 75.6763 49.4788 75.6763Z" fill="#874C2E"/>
<path d="M51.6697 82.1691C57.4407 84.1537 65.1622 82.2579 70.0572 78.9618C73.124 76.9015 75.0811 74.285 74.7513 71.7291C73.8972 65.0894 68.6308 49.8709 64.0744 47.6505C60.9771 46.1399 57.2201 45.5144 55.1253 45.2634C54.1424 45.1443 53.5286 45.1162 53.5286 45.1162L54.2887 47.2414L58.0938 57.8719C58.2358 64.1805 62.7922 67.9267 61.8857 69.3961C60.9792 70.8613 53.8213 72.4433 50.0621 74.9516C49.0224 75.6485 47.7031 80.6888 51.6697 82.1691Z" fill="#BC744A"/>
<path d="M74.7512 71.8936L74.7643 72.3372C74.7643 72.4108 74.7752 72.4844 74.7643 72.558L74.7381 72.7765C74.7162 72.9215 74.7162 73.0709 74.6791 73.2115L74.5742 73.6379C74.3995 74.1962 74.157 74.7351 73.825 75.2199C73.1916 76.2068 72.3528 77.0551 71.4267 77.7823C69.5722 79.2409 67.4359 80.3317 65.208 81.1238C62.9843 81.9353 60.6537 82.4699 58.2881 82.6647C57.1064 82.7642 55.9159 82.7772 54.7342 82.6777C53.5503 82.5868 52.3752 82.3725 51.235 82.0197C52.3512 82.4418 53.5307 82.6906 54.7168 82.8356C55.9072 82.9698 57.1086 82.985 58.3056 82.9136C59.5026 82.8465 60.693 82.669 61.8638 82.4136C63.0346 82.1604 64.1901 81.8315 65.3194 81.4289C66.4443 81.0156 67.5452 80.533 68.598 79.9616C69.6486 79.3881 70.6665 78.7432 71.5839 77.9727C72.5035 77.2088 73.3401 76.3258 73.9583 75.3C74.275 74.7914 74.5 74.2309 74.655 73.6574C74.8101 73.0817 74.8211 72.4779 74.7512 71.8936Z" fill="#874C2E"/>
<path d="M58.0938 57.8718C58.0894 59.0686 58.2576 60.2676 58.5722 61.4276C58.8889 62.5876 59.352 63.7065 59.8893 64.7842C60.158 65.3231 60.4441 65.8512 60.739 66.3727C61.0295 66.8965 61.3287 67.4159 61.5734 67.9482C61.6935 68.2144 61.7984 68.4893 61.8399 68.7598C61.8508 68.8918 61.8617 69.0282 61.8246 69.1429C61.8158 69.2056 61.7787 69.2532 61.7569 69.3095C61.7154 69.3593 61.687 69.4134 61.6345 69.461C61.2436 69.8484 60.6844 70.1103 60.1536 70.3635C57.9737 71.3482 55.6583 72.0775 53.4522 73.06C52.3491 73.5513 51.2569 74.0815 50.2412 74.7438L50.0534 74.8693C49.9901 74.9126 49.9311 74.9688 49.8699 75.0186C49.7563 75.129 49.658 75.2502 49.5794 75.3822C49.4178 75.6441 49.3086 75.9297 49.2234 76.2197C49.0617 76.8019 48.994 77.4014 48.9896 78.0009C49.029 77.4057 49.1294 76.8105 49.3064 76.2457C49.4942 75.6852 49.7847 75.1398 50.3286 74.8779C51.3487 74.2503 52.443 73.7504 53.5526 73.2894C54.6645 72.835 55.7894 72.4043 56.9186 71.9866C58.0479 71.5624 59.1838 71.1577 60.2934 70.6556C60.8395 70.3873 61.4008 70.1341 61.8661 69.6688C61.9251 69.6125 61.9731 69.5346 62.0234 69.4675C62.0605 69.3853 62.1107 69.3073 62.1238 69.2208C62.1763 69.0476 62.1588 68.8767 62.1435 68.7144C62.0911 68.3941 61.9731 68.1041 61.8464 67.827C61.5865 67.273 61.2829 66.7558 60.988 66.2342C60.6931 65.7126 60.396 65.1954 60.1143 64.6695C58.9872 62.5724 58.2074 60.2676 58.0938 57.8718Z" fill="#874C2E"/>
<path d="M43.138 48.2198C43.6885 48.7608 46.1392 50.49 48.4764 50.49C48.8653 50.49 49.2759 50.4554 49.7106 50.3753C51.6721 50.0204 53.3234 48.724 54.2889 47.2394C54.468 46.9602 54.6253 46.6724 54.7541 46.3846C54.9289 46.0123 55.0534 45.6314 55.1255 45.2635C54.1425 45.1445 53.2033 44.8999 53.0504 44.7268C52.8844 45.8608 51.4711 47.9081 49.3305 48.2934C49.0618 48.3431 48.8085 48.3648 48.566 48.3691H48.5616C47.5569 48.3864 46.7858 48.0683 46.2594 47.748C46.255 47.748 45.2349 46.9516 45.2306 46.9473L43.138 48.2198Z" fill="#BC744A"/>
<path d="M47.6333 35.0484C47.1418 34.6199 45.9623 34.7866 45.4599 35.1047C45.3616 35.1675 45.2546 35.0268 45.3376 34.9467C45.6762 34.6113 46.2441 34.5918 46.6962 34.6091C47.0392 34.6221 47.6005 34.6069 47.7185 35.003C47.7316 35.0484 47.6683 35.0787 47.6333 35.0484Z" fill="#3D302A"/>
<path d="M42.8387 35.3385C42.5395 35.3169 42.2599 35.2606 41.9606 35.3342C41.6614 35.4078 41.4408 35.5896 41.1743 35.7281C41.1175 35.7584 41.065 35.6999 41.0891 35.6437C41.3512 35.0702 42.3669 34.8602 42.8737 35.2043C42.9283 35.2433 42.9152 35.3429 42.8387 35.3385Z" fill="#3D302A"/>
<path d="M44.042 36.9704C44.0617 37.4162 44.0442 37.8729 43.9699 38.3144C43.9437 38.4723 43.7384 38.8965 43.7712 39.0307C43.8083 39.1779 44.0682 39.3618 44.1578 39.509C44.2036 39.5826 44.1141 39.6583 44.0442 39.6215C43.7777 39.4852 43.4719 39.2817 43.5287 38.9636C43.579 38.6671 43.7166 38.3836 43.7624 38.0785C43.8192 37.7106 43.8214 37.3405 43.8564 36.9682C43.8651 36.8535 44.0376 36.8492 44.042 36.9704Z" fill="#CC6144"/>
<path d="M48.7491 42.4999C48.1331 43.2162 47.0803 43.6967 46.1345 43.7248C46.0406 43.727 46.0166 43.5755 46.1127 43.5582C47.1153 43.3742 47.8557 43.0323 48.6574 42.4068C48.7207 42.3549 48.8059 42.435 48.7491 42.4999Z" fill="#CC6144"/>
<path d="M53.5306 44.761C54.9504 44.0944 55.7106 46.2088 55.8547 47.2455C56.13 49.2387 55.2388 51.0934 54.4262 52.8572C53.5743 54.7097 52.6001 56.4995 51.7286 58.3412C51.2786 59.2956 50.8789 60.2717 50.5796 61.2824C50.2651 62.3385 50.2302 63.5158 49.8435 64.5351C49.7911 64.6736 49.6098 64.6433 49.5923 64.5005C49.4045 63.0245 50.0641 61.2088 50.5775 59.828C51.0689 58.5057 51.7046 57.2418 52.338 55.9823C53.1659 54.3397 54.0046 52.6797 54.6839 50.97C55.0247 50.113 55.3065 49.2171 55.3676 48.2908C55.4157 47.5506 55.1426 44.5403 53.6901 45.1354C53.476 45.2263 53.3188 44.8606 53.5306 44.761Z" fill="#874C2E"/>
<path d="M45.2347 47.0379C43.448 47.711 44.0727 50.9464 44.3173 52.3488C44.6144 54.0564 45.1714 55.712 45.8703 57.2983C47.2312 60.3909 49.066 63.2606 50.7086 66.2082C50.844 66.4506 50.4727 66.667 50.3329 66.4268C48.2905 62.8754 45.9643 59.43 44.6166 55.5388C43.9918 53.7339 43.5921 51.8338 43.5637 49.9206C43.5462 48.6481 43.7341 47.1007 45.1255 46.6354C45.3811 46.5488 45.4815 46.9427 45.2347 47.0379Z" fill="#874C2E"/>
<path d="M47.6176 64.7044C48.9981 64.6632 50.3785 64.6243 51.759 64.5832C51.9818 64.5767 52.1129 64.7606 52.1369 64.9576C52.3968 67.0114 52.4864 69.1041 52.7988 71.1493C52.8359 71.3895 52.7026 71.6189 52.434 71.6233C51.0732 71.6514 49.7102 71.6925 48.3493 71.7055C48.2772 71.7055 48.2183 71.6903 48.168 71.6622C48.1658 71.6622 48.1637 71.66 48.1615 71.6579C48.1484 71.6514 48.1353 71.6427 48.1222 71.6341C48.0588 71.5908 48.0086 71.5237 47.9845 71.4285C47.4581 69.4093 47.4581 67.1477 47.2397 65.0766C47.2179 64.8732 47.4297 64.7087 47.6176 64.7044Z" fill="#874C2E"/>
<path d="M42.1396 73.034C42.0807 71.9195 42.1921 70.7919 42.1986 69.6752C42.2073 68.5196 42.1724 67.3639 42.109 66.2082C42.0479 65.0893 41.9583 63.9705 41.8295 62.8581C41.6962 61.7111 41.4538 60.5749 41.3314 59.4279C41.314 59.2742 41.563 59.2461 41.6001 59.3911C41.871 60.445 41.9758 61.5682 42.1047 62.6481C42.2445 63.8298 42.3493 65.0179 42.4061 66.2082C42.4629 67.3617 42.4695 68.5196 42.4432 69.6752C42.417 70.7919 42.417 71.9454 42.1855 73.0405C42.1833 73.0686 42.1418 73.06 42.1396 73.034Z" fill="#874C2E"/>
<path d="M53.6202 46.8411C53.2511 48.3409 51.556 49.6134 50.0663 49.8342C49.9397 49.8536 49.885 49.6805 50.0117 49.6415C50.7806 49.3992 51.5058 49.0854 52.1261 48.5638C52.7268 48.0595 53.0938 47.4384 53.5154 46.7978C53.5525 46.7459 53.6355 46.7783 53.6202 46.8411Z" fill="#874C2E"/>
<path d="M48.6577 49.8424C48.3977 49.784 48.14 49.7234 47.8844 49.652C47.6551 49.587 47.4148 49.5438 47.216 49.4118C47.157 49.3728 47.1789 49.2797 47.2531 49.2776C47.7228 49.2646 48.2688 49.5221 48.7057 49.6758C48.8106 49.7104 48.7691 49.8662 48.6577 49.8424Z" fill="#874C2E"/>
<path d="M51.1891 35.7887C51.045 35.5702 50.8222 36.2497 50.8134 36.306C50.7719 36.57 50.8265 36.8059 50.8943 37.0591C50.9205 37.1543 50.6234 37.0786 50.5885 37.0115C50.3962 36.6436 50.3809 36.003 50.7151 35.7C50.9248 35.5117 51.3311 35.5637 51.4818 35.7996C51.5517 35.9056 51.2372 35.8623 51.1891 35.7887Z" fill="#CC6144"/>
<path d="M50.7172 36.3102C50.7194 36.2821 50.7172 36.2539 50.7085 36.2258C50.7063 36.2171 50.7063 36.2106 50.715 36.2041C50.833 36.0613 51.0187 35.9942 51.1978 36.0613C51.2087 36.0656 51.2458 36.083 51.2305 36.1003C51.1868 36.1457 51.1038 36.1436 51.0492 36.1695C51.0034 36.1912 50.9706 36.2215 50.9313 36.2539C50.892 36.2886 50.8439 36.3037 50.8046 36.3362C50.7849 36.3513 50.7172 36.3362 50.7172 36.3102Z" fill="#CC6144"/>
<path d="M45.722 41.8657C45.556 42.0929 45.2 42.2119 44.9422 42.0583C44.9226 42.0475 44.9247 42.0323 44.9488 42.0345C45.1781 42.0453 45.3878 41.9804 45.5254 41.7899C45.5582 41.7445 45.7613 41.8116 45.722 41.8657Z" fill="#CC6144"/>
<path d="M47.3428 37.3319C47.369 37.5072 47.3625 37.6478 47.262 37.8015C47.1768 37.9313 47.0654 38.0287 46.9081 38.059C46.8907 38.0633 46.7989 38.0439 46.8208 38.0136C46.9059 37.8967 47.0348 37.8296 47.1091 37.6998C47.1746 37.5829 47.2358 37.4466 47.2445 37.3124C47.2445 37.2864 47.3384 37.3102 47.3428 37.3319Z" fill="#CC6144"/>
<path d="M42.1022 38.4033C42.0869 38.4033 42.0454 38.3792 42.0803 38.3792C42.0978 38.3792 42.1372 38.4033 42.1022 38.4033Z" fill="#CC6144"/>
<path d="M41.86 38.3572C41.7158 38.2836 41.5126 38.0694 41.6481 37.9071C41.659 37.8941 41.7005 37.9092 41.7049 37.9222C41.7726 38.0759 41.7879 38.2403 41.9539 38.3248C42.0522 38.3745 41.9058 38.3789 41.86 38.3572Z" fill="#CC6144"/>
<path d="M42.0761 64.3793C42.015 63.4596 41.589 62.741 41.0211 62.029C40.5799 61.4772 40.0294 61.1201 39.5227 60.644C39.4681 60.592 39.5249 60.4946 39.5969 60.5163C40.3352 60.7457 40.9338 61.488 41.375 62.081C41.8381 62.7021 42.4802 63.5786 42.1963 64.3923C42.1744 64.4616 42.0827 64.4486 42.0761 64.3793Z" fill="#874C2E"/>
<path d="M42.1874 64.9269C41.9537 64.6434 41.8052 64.2993 41.5998 63.9942C41.3574 63.6349 41.0734 63.2995 40.7611 62.9965C40.6999 62.938 40.1211 62.3515 40.0643 62.8212C40.0293 63.1177 40.6278 63.2302 40.8047 63.3363C41.0035 63.4553 41.1368 63.5483 41.1368 63.7907C41.1368 63.8686 41.0188 63.9076 40.9817 63.8318C40.7458 63.3622 39.8961 63.3795 39.8065 62.7498C39.7716 62.4966 39.9747 62.3364 40.2237 62.3624C40.6715 62.41 41.1368 63.0549 41.388 63.3644C41.7375 63.7972 42.1503 64.3361 42.2355 64.8966C42.2398 64.9226 42.2071 64.9507 42.1874 64.9269Z" fill="#874C2E"/>
<path d="M50.8595 76.3387C50.8573 77.0875 50.8704 77.8125 51.1369 78.5246C51.4012 79.2344 51.8796 79.7755 52.3208 80.3749C52.3536 80.4204 52.2902 80.4723 52.2465 80.4485C50.9534 79.7387 50.2981 77.6827 50.7415 76.3236C50.7612 76.2608 50.8595 76.2695 50.8595 76.3387Z" fill="#874C2E"/>
<path d="M45.0993 69.4501C45.285 70.6036 45.4991 71.6554 46.1019 72.6813C46.7004 73.7006 47.5523 74.5857 48.5505 75.2263C48.6313 75.2783 48.5592 75.4016 48.4762 75.354C46.4732 74.2243 44.787 71.8437 44.9268 69.4739C44.9311 69.3831 45.0819 69.3484 45.0993 69.4501Z" fill="#874C2E"/>
<path d="M38.5377 40.0889C38.2865 39.9871 37.9632 39.8898 37.8038 39.6582C37.7797 39.6236 37.8125 39.5781 37.8518 39.576C38.127 39.5673 38.3935 39.7686 38.6163 39.9049C38.7081 39.9633 38.6491 40.1321 38.5377 40.0889Z" fill="#874C2E"/>
<path d="M38.5027 40.7361C38.3498 40.84 38.1029 40.9352 37.9282 40.8292C37.8779 40.7989 37.8758 40.7231 37.9282 40.6928C38.0003 40.6517 38.0855 40.6409 38.1641 40.6214C38.2515 40.5998 38.3367 40.5738 38.4175 40.5392C38.5398 40.4916 38.5966 40.6712 38.5027 40.7361Z" fill="#874C2E"/>
<path d="M38.7343 41.9651C38.5858 42.0517 38.3892 42.1924 38.2079 42.1815C38.1642 42.1794 38.1314 42.1318 38.1555 42.0928C38.2516 41.9392 38.4722 41.8634 38.6317 41.7942C38.7474 41.7401 38.8501 41.8959 38.7343 41.9651Z" fill="#874C2E"/>
<path d="M117.188 83.2883H111.268H101.31H97.1621H86.6972H9.77264H5.94138H2.69333" stroke="black" stroke-width="2.1886" stroke-miterlimit="10" stroke-linecap="round"/>
<path d="M118.636 83.2883H125.051" stroke="black" stroke-width="2.1886" stroke-miterlimit="10" stroke-linecap="round"/>
<path d="M0.692591 83.2883H1.76727" stroke="black" stroke-width="2.1886" stroke-miterlimit="10" stroke-linecap="round"/>
<path d="M15.5632 81.9812H51.8226C52.1721 81.9812 52.4582 82.2625 52.4582 82.611V82.6564C52.4582 83.0027 52.1743 83.2862 51.8226 83.2862H15.5632C15.2137 83.2862 14.9276 83.0049 14.9276 82.6564V82.611C14.9276 82.2625 15.2115 81.9812 15.5632 81.9812Z" fill="#2D2442"/>
<path d="M8.48393 65.977C16.0285 65.9013 23.5731 65.8255 31.1176 65.7498C32.1879 65.739 33.2604 65.7281 34.3307 65.7173C34.4968 65.7152 34.7108 65.8125 34.7829 65.9727C36.8558 70.7144 38.9287 75.4561 41.0016 80.1978C41.2965 80.8752 41.5935 81.5505 41.8884 82.2278C41.8993 82.2495 41.9037 82.2733 41.9103 82.2949C41.9103 82.2949 41.9103 82.2949 41.9103 82.2971C41.9168 82.3187 41.9234 82.3404 41.9277 82.362C41.9867 82.6369 41.8469 82.9593 41.5062 83.0005C41.4275 83.0243 41.3467 83.0286 41.2681 83.0091C33.5138 83.0697 25.7596 83.1281 18.0053 83.1887C16.8978 83.1974 15.7904 83.2061 14.6851 83.2147C14.4383 83.2169 14.2636 83.0502 14.1806 82.8338C12.1142 77.432 10.0457 72.0302 7.97936 66.6284C7.85485 66.3103 8.16939 65.9792 8.48393 65.977Z" fill="#2D2442"/>
<path d="M8.48408 65.6219C15.4476 65.5527 22.4134 65.4834 29.3769 65.412C30.2244 65.4034 31.0741 65.3947 31.9216 65.3861C32.6883 65.3774 33.5751 65.2454 34.3331 65.3622C35.458 65.5354 35.7463 67.2862 36.1308 68.1649C37.5134 71.3267 38.8939 74.4886 40.2766 77.6483C40.8685 79.0031 41.4626 80.3557 42.0524 81.7105C42.2752 82.2212 42.4915 82.8402 41.9061 83.2275C41.609 83.4245 41.1612 83.3617 40.8401 83.3661C39.9795 83.3769 39.1167 83.379 38.2561 83.3855C36.5327 83.3985 34.8093 83.4115 33.0859 83.4245C29.639 83.4505 26.1922 83.4786 22.7476 83.5046C21.0285 83.5175 19.3116 83.5305 17.5926 83.5435C16.9002 83.5478 16.2099 83.5543 15.5175 83.5587C14.9845 83.563 14.4559 83.6647 14.0431 83.2752C13.5953 82.8531 13.4446 81.8944 13.2327 81.3425C12.9313 80.5526 12.6277 79.7605 12.3263 78.9706C11.6207 77.1267 10.9152 75.2807 10.2097 73.4368C9.55438 71.7249 8.89909 70.0109 8.2438 68.299C7.91615 67.442 7.00311 65.9812 8.39233 65.6263C8.84011 65.5116 9.03014 66.1976 8.58236 66.3123C8.12366 66.4292 9.68544 70.0758 9.84052 70.4827C10.3451 71.8007 10.8497 73.1187 11.3521 74.4345C11.8566 75.7525 12.3612 77.0705 12.8636 78.3863C13.0908 78.9793 13.3179 79.5722 13.5451 80.1652C13.7919 80.8123 13.971 81.7689 14.3773 82.3381C14.8994 83.0739 15.9893 82.8423 16.7626 82.8358C17.4659 82.8293 18.1671 82.825 18.8704 82.8185C20.3055 82.8077 21.7428 82.7969 23.1779 82.7861C26.0502 82.7644 28.9226 82.7406 31.7949 82.719C34.6673 82.6973 37.5396 82.6735 40.412 82.6519C40.7091 82.6497 41.2115 82.7752 41.4211 82.5134C41.6898 82.1801 41.5369 82.6605 41.4364 82.0611C41.3513 81.5611 40.9734 81.0028 40.7702 80.5375C40.1695 79.1632 39.5689 77.7911 38.9682 76.4169C37.817 73.7831 36.6659 71.1471 35.5126 68.5133C35.257 67.929 35.0517 67.0135 34.6498 66.5374C34.1125 65.9011 33.2606 66.0721 32.5267 66.0808C31.0414 66.0959 29.5582 66.1111 28.0729 66.1262C21.544 66.1911 15.0151 66.256 8.48625 66.3231C8.021 66.3361 8.02101 65.6263 8.48408 65.6219Z" fill="#2D2442"/>
<path d="M25.8555 76.2634C24.8892 76.2634 24.1058 75.6975 24.1058 74.9995C24.1058 74.3015 24.8892 73.7356 25.8555 73.7356C26.8218 73.7356 27.6051 74.3015 27.6051 74.9995C27.6051 75.6975 26.8218 76.2634 25.8555 76.2634Z" fill="#5A4F72"/>
<path d="M22.4919 75.787C21.9877 75.787 21.5789 75.4924 21.5789 75.1291C21.5789 74.7657 21.9877 74.4712 22.4919 74.4712C22.9962 74.4712 23.405 74.7657 23.405 75.1291C23.405 75.4924 22.9962 75.787 22.4919 75.787Z" fill="#5A4F72"/>
<path d="M65.2537 78.6654C64.1375 78.5333 62.1607 78.2347 62.1105 77.5551C62.8335 77.092 63.6286 76.6245 64.4892 76.5834C65.1751 76.551 65.8391 76.7998 66.466 77.0769C66.9989 77.3128 67.5232 77.5681 68.0343 77.8451C68.244 77.9598 68.7944 78.3667 68.8032 78.6502C68.8141 79.003 68.161 78.7952 67.9011 78.8125C67.0164 78.8753 66.1296 78.7714 65.2537 78.6654Z" fill="#C1ADA4"/>
<path d="M67.8902 78.0898C67.8902 78.0898 66.4049 82.9051 65.6207 83.0219C64.8344 83.1366 57.15 83.1951 56.9469 83.1085C56.7437 83.0219 56.7132 82.8769 56.7132 82.8769C56.7132 82.8769 51.8225 83.1951 51.7351 83.0782C51.6478 82.9613 51.7351 82.3857 51.9689 82.2991C52.2026 82.2125 59.5943 80.5699 60.2343 80.3384C60.8743 80.1068 62.8838 80.1652 62.8838 80.1652L63.2923 77.3669L67.8902 78.0898Z" fill="#FE8E68"/>
<path d="M66.097 17.6638C65.6164 18.1745 65.3543 18.8822 65.3893 19.5813C65.4111 19.9968 65.5312 20.4015 65.6579 20.7997C65.9004 21.5658 66.1887 22.3579 66.7894 22.8968C66.8877 22.9834 67.01 23.0678 67.1389 23.0461C67.3792 22.3103 67.6216 21.5766 67.8619 20.8408C67.9777 20.4881 68.0934 20.1331 68.159 19.7674C68.2682 19.1484 68.2288 18.5013 68.0192 17.9105C67.923 17.6422 67.7854 17.376 67.5561 17.2028C66.9991 16.7786 66.477 17.2613 66.097 17.6638Z" fill="#433735"/>
<path d="M80.3343 58.402C80.4129 59.1552 80.295 59.9494 80.2535 60.7026C80.2294 61.1311 80.2054 61.5596 80.2076 61.9881C80.2076 62.237 80.2819 62.54 80.1967 62.7737C80.1879 62.7975 80.1508 62.8148 80.1312 62.791C79.7948 62.3863 79.9848 61.4189 80.0023 60.9298C80.0285 60.0879 80.07 59.2439 80.1028 58.402C80.1049 58.2505 80.319 58.2549 80.3343 58.402Z" fill="#9B8580"/>
<path d="M78.1696 56.9176C78.9778 58.7355 79.4256 60.5859 80.533 62.2848C80.5963 62.38 80.4391 62.4709 80.3779 62.3735C79.3993 60.8499 78.3334 58.7572 78.0757 56.9544C78.0691 56.9046 78.1434 56.8592 78.1696 56.9176Z" fill="#9B8580"/>
<path d="M95.9323 83.288L95.4343 66.652L91.7843 83.288H81.3171C82.0117 77.7542 85.0982 54.6213 88.3222 52.6606L100.991 44.8457C100.991 44.8457 108.322 46.7394 108.162 57.2378C107.577 67.351 106.33 79.2497 105.888 83.288H95.9323Z" fill="#2D2442"/>
<path d="M62.139 77.5726C62.4099 77.9816 63.7947 77.6743 64.2032 77.7133C64.5701 77.7479 64.9152 77.8864 65.2713 77.9773C66.4028 78.2695 67.6675 78.1158 68.6853 78.6871C68.7159 78.7045 68.7531 78.7239 68.788 78.7131C68.8273 78.7023 68.8448 78.659 68.8579 78.6222C69.5088 76.8389 70.0156 74.9777 70.5857 73.1598C71.4419 70.4286 72.296 67.6953 73.1522 64.9641C73.5935 63.553 74.0369 62.142 74.4781 60.7309L77.5864 46.4625L76.2037 36.4056L75.8761 34.0336L75.852 33.854C75.852 33.854 75.7843 33.8778 75.6598 33.9211C75.2273 34.0726 74.1155 34.4838 72.8857 35.0789C70.9133 36.0333 68.6329 37.4639 68.3228 39.0827C68.3228 39.0892 68.3206 39.0935 68.3206 39.1C68.1567 40.2362 67.9711 41.368 67.792 42.5021C67.4731 44.5126 67.1498 46.5209 66.8243 48.5293C66.4202 51.0289 66.0161 53.5286 65.6098 56.0282C65.1861 58.6339 64.7623 61.2374 64.3386 63.8409C63.9607 66.1652 63.5806 68.4895 63.2006 70.8117C62.9297 72.4695 62.6589 74.1272 62.388 75.785C62.3137 76.2438 62.2373 76.7026 62.163 77.1614C62.1499 77.2415 62.08 77.4298 62.1062 77.5077C62.115 77.5315 62.1259 77.5531 62.139 77.5726Z" fill="#EED9CE"/>
<path d="M75.8544 33.8518L75.8785 34.0314L76.2061 36.4034L77.5888 46.4603L84.3514 50.5874C84.7052 50.8038 85.0088 52.2841 85.153 52.6563C85.6204 53.8618 86.0267 55.1149 86.5619 56.2922C86.6711 56.5346 86.7694 57.1903 87.0118 57.3375C87.4989 57.634 89.4823 57.2271 90.0939 57.1881C92.359 57.0431 94.6503 56.7142 96.7232 55.7468C98.3615 54.9807 99.814 53.8986 101.356 52.9702C102.3 52.4031 103.35 52.0482 104.346 51.5916C105.013 51.2864 106.452 50.7021 106.71 49.9252C106.784 49.7001 106.668 49.462 106.559 49.2543C106.083 48.341 105.766 47.2394 105.205 46.3911C104.687 45.6098 104.047 44.9043 103.543 44.1013C102.525 42.489 101.627 40.7858 100.356 39.3466C98.1933 36.8968 96.3737 34.0985 94.1458 31.6573C93.1563 30.5731 90.072 29.5408 88.5976 29.4802C87.2565 29.4261 85.9568 29.6446 84.8188 29.9584C83.9036 30.2138 83.091 30.5319 82.451 30.8176C81.5118 31.2396 80.9395 31.5967 80.9395 31.5967L75.8544 33.8518Z" fill="#EED9CE"/>
<path d="M73.3552 47.2327C72.6431 46.7977 69.3164 44.6941 69.0171 43.9345C68.8795 43.5817 68.1238 42.4953 67.4728 41.476C67.0862 40.8722 66.1098 39.6884 65.863 39.4352C65.4393 39.0002 64.8298 37.9224 64.4607 38.2773C64.002 38.7188 64.7184 39.8226 65.1225 40.4999C65.2711 40.7488 65.4305 40.9977 65.4939 41.279C65.5572 41.5604 65.5441 41.7703 65.3759 42.0084C65.2842 42.1382 64.6638 42.1988 64.4541 42.1902C62.8836 42.1209 62.2021 42.214 61.0292 41.7811C59.8562 41.3483 58.7619 40.738 57.6566 40.158C57.4666 40.0584 57.353 39.855 56.9249 39.8161C56.7108 39.7966 56.2608 39.8247 56.2849 40.0368C56.3045 40.2013 57.6238 41.2228 57.7593 41.318C58.491 41.8331 58.408 41.7746 59.1397 42.2897C59.2533 42.3698 59.3756 42.4629 59.404 42.597C59.4281 42.7096 59.3778 42.8264 59.3756 42.9411C59.3713 43.1489 59.5154 43.3264 59.6596 43.4779C59.9108 43.744 60.1751 43.9929 60.4547 44.2288C60.8435 44.5599 60.5268 44.8413 60.9505 45.1313C61.418 45.4516 62.6281 45.7762 63.1086 46.0749C63.4909 46.3151 63.8775 46.5575 64.2991 46.7241C64.8036 46.9232 65.3432 47.012 65.8761 47.1202C67.3331 47.4188 69.8843 50.0353 71.1163 50.8988" fill="#FE8E68"/>
<path d="M64.9872 46.9343C64.9872 46.9343 63.1546 46.7048 61.6977 46.034C60.2408 45.3631 56.6388 43.1599 56.6388 43.1599C56.6388 43.1599 56.5886 43.0344 56.6279 42.9478C56.6651 42.8613 57.2133 42.7401 57.6545 42.9283C58.0958 43.1166 60.9179 44.3307 60.9179 44.3307" fill="#FE8E68"/>
<path d="M65.3499 46.3237C65.3499 46.3237 63.0279 45.8433 61.571 45.1724C60.1141 44.5015 56.5122 42.2983 56.5122 42.2983C56.5122 42.2983 56.4619 42.1728 56.5013 42.0863C56.5406 41.9997 57.0866 41.8785 57.5279 42.0668C57.9691 42.2572 60.7912 43.4692 60.7912 43.4692" fill="#FE8E68"/>
<path d="M64.6157 45.0014C64.6157 45.0014 62.2938 44.521 60.8369 43.8501C59.3799 43.1792 57.117 42.0322 55.8348 41.1644C55.7496 41.1081 55.7278 40.8527 55.7671 40.764C55.8064 40.6774 56.3525 40.5562 56.7937 40.7467C57.235 40.9371 60.0571 42.1491 60.0571 42.1491" fill="#FE8E68"/>
<path d="M73.2264 31.2265C73.2264 31.2265 67.6084 34.6199 66.2957 27.753C65.9768 24.9114 65.5792 20.293 67.9688 18.4881C70.3585 16.6832 75.8563 16.4754 75.9765 21.8339C75.7668 23.3726 75.8279 23.4917 75.8279 23.4917C75.8279 23.4917 77.8899 22.929 77.4422 25.4741C77.2041 26.6276 76.8939 27.0431 76.8939 27.0431C76.8939 27.0431 81.1118 30.3153 81.1161 30.3197C81.505 30.6205 81.8304 31.1226 82.3677 30.8802C82.4267 30.8542 82.4835 30.8196 82.5469 30.8088C82.6102 30.798 82.6845 30.8174 82.7172 30.8737C82.7369 30.9083 82.7347 30.9516 82.7369 30.9927C82.7434 31.1983 82.8243 31.3909 82.8789 31.5879C83.0908 32.3432 82.8701 33.0509 82.4682 33.7044C82.1275 34.2585 81.6426 34.7303 81.0703 35.0462C80.522 35.3492 79.906 35.5137 79.2879 35.6241C78.5103 35.7626 77.6868 35.8167 76.9179 35.6046C76.4461 35.4747 76.125 35.3297 75.7974 34.951C75.7362 34.8796 75.6772 34.806 75.6357 34.7216C75.5418 34.5312 75.5374 34.3126 75.5396 34.1005C75.5396 34.0702 75.5418 34.0399 75.5615 34.0161C75.5811 33.9923 75.6161 33.988 75.6467 33.9836C75.9896 33.9274 75.7624 33.7477 75.6204 33.6006C75.4785 33.4534 75.3343 33.3084 75.1901 33.1612C74.8887 32.8561 74.5829 32.5531 74.2771 32.2501C73.9254 31.9082 73.5759 31.5662 73.2264 31.2265Z" fill="#FE8E68"/>
<path d="M68.1849 22.1177C69.0412 21.806 70.5199 22.1415 71.0616 22.8968C71.0988 22.9487 71.0354 23.0331 70.9743 23.0071C70.544 22.8383 70.1836 22.5657 69.727 22.438C69.2159 22.2951 68.7288 22.3341 68.2111 22.3103C68.0954 22.3081 68.0801 22.1566 68.1849 22.1177Z" fill="#433735"/>
<path d="M66.0837 24.0762C66.2126 24.4874 66.0837 24.957 65.9155 25.3552C65.7473 25.7534 65.4874 26.104 65.2318 26.4524C65.1161 26.6083 65.0003 26.7662 64.8845 26.9221C65.2449 27.0411 65.5988 27.1883 65.9374 27.3614C66.1405 27.4653 66.3589 27.606 66.4004 27.8289" fill="#FE8E68"/>
<path d="M73.0256 46.0297C77.1233 47.9148 83.5036 51.319 83.5036 51.319L84.4189 44.7659L94.0604 44.8438C94.0604 44.8438 91.271 60.0796 89.1195 61.5015C89.1195 61.5015 86.5704 63.3951 82.4268 60.5536C79.692 58.6772 73.3314 53.7472 70.2056 51.0506L73.0256 46.0297Z" fill="#EED9CE"/>
<path d="M91.1375 57.071C91.2008 56.0236 91.701 54.8874 91.9697 53.8745C92.3519 52.4375 92.7342 51.0005 93.0924 49.557C93.7368 46.947 94.2872 44.324 94.8617 41.701C94.8792 41.6253 95.0081 41.6404 95.0015 41.7205C94.7874 44.337 94.0906 46.9535 93.455 49.4921C93.1055 50.8923 92.7451 52.2925 92.3498 53.6797C92.044 54.751 91.8277 56.1404 91.2423 57.0991C91.2161 57.1446 91.1353 57.1294 91.1375 57.071Z" fill="#DBC4BD"/>
<path d="M70.4415 50.7065C72.4423 52.0136 74.2269 53.7298 75.8673 55.4503C76.0115 55.6018 75.7821 55.8291 75.638 55.6776C73.9692 53.9354 72.1256 52.4616 70.2733 50.9229C70.1488 50.8234 70.3083 50.6199 70.4415 50.7065Z" fill="#DBC4BD"/>
<path d="M77.13 48.1334C76.4682 48.0338 75.8042 47.6984 75.2078 47.4084C74.688 47.1552 74.0021 46.9149 73.6592 46.4367C73.598 46.3501 73.6985 46.2657 73.7815 46.2787C74.3472 46.3631 74.8955 46.8197 75.4044 47.0729C75.9964 47.3673 76.6538 47.5837 77.213 47.9343C77.3266 48.0035 77.2502 48.1529 77.13 48.1334Z" fill="#DBC4BD"/>
<path d="M82.6168 30.7157C83.3573 29.9625 84.0825 31.3043 84.3053 31.9168C84.8994 33.5551 84.5455 35.5093 84.0628 37.126C83.4774 39.0954 82.4966 40.8981 81.9724 42.8913C81.3761 45.1637 80.9371 47.4383 81.0266 49.7951C81.0332 49.9401 80.8082 49.9379 80.7994 49.7951C80.5963 46.7219 81.3412 43.2874 82.4988 40.4437C83.082 39.0088 83.7395 37.6281 84.0846 36.1088C84.279 35.2539 84.4014 34.3623 84.362 33.4858C84.3468 33.1417 83.7526 29.8695 82.7719 30.865C82.6736 30.9689 82.5185 30.8152 82.6168 30.7157Z" fill="#9B8580"/>
<path d="M75.2381 33.5445C75.0502 33.854 74.8646 34.1635 74.6767 34.4708C74.6396 34.6764 74.6024 34.8842 74.5653 35.0898C74.5457 35.317 74.5566 35.5486 74.5719 35.7736C74.6134 36.3904 74.7663 36.9964 74.8689 37.6067C75.0633 38.7819 75.2141 39.9635 75.4172 41.1386C75.8082 43.4024 76.3302 45.638 77.0685 47.8173C77.11 47.9385 76.92 47.9883 76.8785 47.8692C75.8475 44.9563 75.2861 41.9307 74.8252 38.8836C74.6134 37.4725 73.3989 34.1072 75.3167 33.3757C75.3932 33.3454 75.4674 33.4342 75.4478 33.5056C75.4412 33.5272 75.4347 33.5489 75.4303 33.5683C75.3953 33.6744 75.2425 33.6506 75.2381 33.5445Z" fill="#9B8580"/>
<path d="M77.8967 61.4126C77.8945 61.22 78.0714 61.0252 78.2746 61.0382C79.6529 61.1291 81.029 61.2222 82.4073 61.3131C82.6148 61.326 82.7786 61.4732 82.7852 61.6875C82.8441 63.7889 82.7327 65.9163 82.8441 68.0134C82.8551 68.206 82.6628 68.4029 82.4662 68.3878C81.1076 68.2861 79.749 68.1952 78.3925 68.0805C78.3816 68.0805 78.3729 68.0761 78.3619 68.074C78.2069 68.0826 78.0605 68.0047 78.0277 67.8056C77.7023 65.741 77.912 63.4989 77.8967 61.4126Z" fill="#D6CED7"/>
<path d="M77.6345 24.6128C78.2527 24.695 78.7245 24.8422 79.1745 24.2795C79.3558 24.0544 79.4999 23.8185 79.7817 23.7125C79.8188 23.6995 79.8472 23.7515 79.8188 23.7753C79.4693 24.0912 79.2181 24.6344 78.7573 24.8097C78.3925 24.9483 77.9425 24.8487 77.6039 24.6821C77.5603 24.6626 77.5952 24.6063 77.6345 24.6128Z" fill="#594C4A"/>
<path d="M69.142 26.7468C68.0864 26.7468 67.2307 25.899 67.2307 24.8531C67.2307 23.8073 68.0864 22.9595 69.142 22.9595C70.1975 22.9595 71.0532 23.8073 71.0532 24.8531C71.0532 25.899 70.1975 26.7468 69.142 26.7468Z" stroke="#F9F9F9" stroke-width="1.0943" stroke-miterlimit="10"/>
<path d="M67.1715 24.3553C67.1016 24.3142 67.071 24.2492 67.0077 24.1973C66.916 24.1215 66.7958 24.0783 66.68 24.0566C66.573 24.0371 66.4573 24.0371 66.3546 24.0761C66.2585 24.1129 66.2345 24.2038 66.1471 24.2406C66.1231 24.2514 66.1012 24.2471 66.0837 24.2233C66.0772 24.2146 66.0706 24.2038 66.0619 24.1951C66.0422 24.1692 66.0488 24.1367 66.0619 24.1107C66.1733 23.8727 66.4944 23.8532 66.7216 23.9008C66.916 23.9419 67.2654 24.0891 67.2283 24.3315C67.2283 24.3574 67.1912 24.3661 67.1715 24.3553Z" fill="#F9F9F9"/>
<path d="M77.6604 21.4575C76.684 22.1543 70.5789 21.2995 68.6065 20.4035C64.6005 18.5834 64.2073 15.3783 65.1444 14.7766C65.258 14.7031 65.3825 14.6468 65.5157 14.6295C65.8302 14.5927 66.1186 14.7853 66.3741 14.9692C66.2737 14.6057 65.9089 13.028 66.8809 12.4004C68.1871 11.5585 69.8297 12.9825 70.0984 13.16C71.9616 14.3957 72.9685 14.6057 72.9685 14.6057C72.9685 14.6057 72.6409 11.4914 75.214 13.8828C76.0244 14.636 77.5294 15.3393 78.3376 16.0968C79.1851 16.891 79.6678 18.1874 79.1785 19.2954" fill="#433735"/>
<path d="M74.7993 19.5703C74.2401 20.0205 73.9911 20.7411 73.8294 21.438C73.587 22.4855 73.4909 23.5978 73.8273 24.6193C73.9234 24.9093 73.8032 26.2511 74.0326 26.2122C74.1047 26.2014 74.2663 25.1734 74.5393 24.6496C74.9653 23.8381 76.3174 23.7277 76.8088 24.364C77.4182 25.1517 77.0273 25.7079 76.7564 26.4935C76.5554 27.0778 76.7542 27.8115 77.475 28.0128C78.1478 28.2011 77.9534 27.6968 78.2221 27.225C78.7987 26.2078 79.4016 25.3184 79.7882 24.1865C80.3976 22.4011 80.9 19.6915 79.015 18.4558C78.5432 18.1463 76.9879 17.7697 76.4637 17.9775" fill="#433735"/>
<path d="M75.2581 23.5546C74.9763 24.1043 74.3232 24.2125 73.7684 24.351C72.9689 24.5501 72.1127 24.706 71.2848 24.7038C71.1407 24.7038 71.1494 24.5047 71.2848 24.4874C71.9947 24.3987 72.7003 24.3381 73.3992 24.1866C73.9759 24.0632 74.76 23.9528 75.151 23.4745C75.2035 23.4118 75.2908 23.4897 75.2581 23.5546Z" fill="#F9F9F9"/>
<path d="M74.3733 29.8633C74.0763 30.426 73.6088 30.9822 73.0278 31.2722C73.0016 31.2852 72.9732 31.2527 72.995 31.2311C73.4537 30.7701 73.9103 30.3459 74.2991 29.8222C74.3318 29.7789 74.3974 29.8157 74.3733 29.8633Z" fill="#CC6144"/>
<path d="M62.9185 23.1844C62.6455 23.007 62.3528 22.8403 62.1344 22.5958C62.1191 22.5785 62.1344 22.5417 62.1606 22.5525C62.4664 22.6694 62.7241 22.8815 62.984 23.0741C63.0496 23.1217 62.9906 23.2299 62.9185 23.1844Z" fill="#433735"/>
<path d="M62.5233 23.9378C62.3179 23.8945 62.0602 23.8469 61.8855 23.7279C61.8396 23.6954 61.8571 23.6283 61.9138 23.624C62.1257 23.611 62.3704 23.7062 62.5691 23.7755C62.6718 23.8101 62.6303 23.9595 62.5233 23.9378Z" fill="#433735"/>
<path d="M62.4492 24.8661C62.3225 24.8314 62.1958 24.8033 62.0626 24.7882C61.9556 24.7773 61.8463 24.7773 61.7415 24.7535C61.7109 24.747 61.7022 24.6994 61.7328 24.6843C61.9599 24.5761 62.2657 24.628 62.4907 24.7189C62.5803 24.7535 62.5475 24.892 62.4492 24.8661Z" fill="#433735"/>
<path d="M102.857 52.5696C103.414 52.5523 103.39 53.4136 103.442 53.7815C103.512 54.2815 103.654 54.9264 103.219 55.303C103.145 55.3679 103.045 55.3203 103.034 55.2272C103.031 55.2034 103.029 55.1796 103.027 55.158C103.021 55.1039 103.084 55.0865 103.123 55.1039C103.147 55.1147 103.173 55.1255 103.197 55.1363C103.147 55.1493 103.099 55.1623 103.049 55.1753C103.304 54.79 103.276 54.4178 103.221 53.9828C103.167 53.5456 103.197 52.9635 102.82 52.6648C102.776 52.6324 102.813 52.5718 102.857 52.5696Z" fill="black"/>
<path d="M102.221 52.9918C102.568 53.5588 102.651 54.6128 102.37 55.2166C102.337 55.288 102.232 55.2469 102.23 55.1798C102.214 54.8162 102.304 54.4591 102.282 54.0912C102.26 53.7276 102.153 53.3814 102.12 53.0199C102.114 52.9637 102.195 52.9485 102.221 52.9918Z" fill="black"/>
<path d="M91.4632 57.5711C91.5375 57.7962 91.6074 58.0234 91.7078 58.2398C91.7996 58.4367 91.9394 58.6099 92.0268 58.8068C92.0683 58.8999 91.9634 58.9908 91.8804 58.9172C91.5397 58.6142 91.3518 58.0277 91.319 57.5884C91.3147 57.5061 91.4392 57.4953 91.4632 57.5711Z" fill="black"/>
<path d="M90.9785 58.3417C91.0484 58.5906 91.162 58.7962 91.2778 59.0234C91.3259 59.1208 91.1926 59.2441 91.1162 59.1468C90.9414 58.926 90.8628 58.636 90.8409 58.359C90.8366 58.2811 90.9589 58.2681 90.9785 58.3417Z" fill="black"/>
<path d="M107.522 52.5394C106.832 52.9506 106.111 53.2968 105.425 53.7253C104.826 54.0976 104.197 54.4482 103.485 54.5412C103.38 54.5542 103.359 54.3811 103.461 54.3594C104.287 54.1798 104.964 53.7859 105.667 53.3401C106.209 52.996 106.843 52.5264 107.504 52.4788C107.539 52.4788 107.548 52.5242 107.522 52.5394Z" fill="black"/>
<path d="M102.304 54.6816C100.561 55.5776 98.9159 56.6835 97.1292 57.4929C96.3123 57.863 95.4538 58.1205 94.5714 58.3002C93.737 58.469 92.7497 58.6984 91.9 58.6075C91.8126 58.5988 91.782 58.4711 91.8781 58.4473C92.7868 58.2201 93.7741 58.2396 94.6981 58.0405C95.6264 57.8392 96.5154 57.5427 97.3695 57.1272C99.0208 56.3264 100.521 55.1967 102.243 54.541C102.326 54.5085 102.38 54.6405 102.304 54.6816Z" fill="black"/>
<path d="M94.399 66.9896C94.1216 66.6715 93.8398 66.3577 93.5187 66.0829C93.3374 65.927 92.4091 65.1111 92.1252 65.3838C92.0989 65.4098 92.0465 65.3838 92.0596 65.347C92.2016 64.9142 92.8219 65.3622 93.0295 65.4964C93.6061 65.8729 94.1129 66.3512 94.4667 66.9399C94.4929 66.9788 94.4318 67.0264 94.399 66.9896Z" fill="black"/>
<path d="M96.4761 66.7365C97.328 65.9011 98.4617 65.3189 99.6718 65.2713C99.7067 65.2691 99.7133 65.3232 99.6805 65.3319C98.5097 65.5959 97.4744 66.0309 96.5722 66.8317C96.5067 66.8879 96.415 66.797 96.4761 66.7365Z" fill="black"/>
<path d="M94.4842 67.5413C93.4423 67.9049 92.6254 68.5477 92.3851 69.6665C92.3327 69.6276 92.2802 69.5865 92.2278 69.5475C92.4965 69.3765 92.7302 69.1645 92.9268 68.9156C93.0666 68.7381 93.1671 68.5022 93.3309 68.3442C93.51 68.1733 93.7918 68.1148 94.0037 68.2512C94.0168 68.2598 94.008 68.2815 93.9927 68.275C93.5209 68.1018 93.2523 68.8268 93.0295 69.0974C92.8285 69.3441 92.5904 69.541 92.3349 69.7293C92.254 69.7899 92.1623 69.6903 92.1776 69.6103C92.3938 68.5477 93.3178 67.4894 94.4667 67.4245C94.541 67.4201 94.5454 67.5197 94.4842 67.5413Z" fill="black"/>
<path d="M107.647 59.5709C106.581 58.9173 105.607 58.1166 105.024 56.9955C104.952 56.857 105.163 56.7337 105.235 56.8722C105.801 57.9564 106.738 58.7269 107.771 59.361C107.905 59.4432 107.782 59.6532 107.647 59.5709Z" fill="black"/>
<path d="M94.9013 58.3437C94.827 59.4366 94.6654 60.5036 94.6872 61.603C94.7112 62.7565 94.8598 63.9013 95.1131 65.0267C95.1372 65.1328 94.9712 65.1804 94.9471 65.0722C94.6959 63.9641 94.543 62.8409 94.5146 61.7047C94.4862 60.5988 94.5081 59.4042 94.8095 58.3307C94.8226 58.281 94.9034 58.2896 94.9013 58.3437Z" fill="black"/>
<path d="M95.1001 65.5028C95.2049 65.6759 95.2224 65.9032 95.2595 66.0979C95.2923 66.2711 95.3622 66.468 95.3054 66.6411C95.2945 66.6736 95.253 66.6779 95.2333 66.6498C95.1263 66.4961 95.1306 66.2776 95.0979 66.0979C95.0629 65.9118 94.993 65.717 95.0061 65.5266C95.0105 65.479 95.0738 65.4573 95.1001 65.5028Z" fill="black"/>
<path d="M93.3482 58.4608C93.3788 59.3243 93.3438 60.1921 93.3351 61.0556C93.3263 61.8629 93.2521 62.6982 93.3329 63.5011C93.4683 64.8256 94.768 65.4987 95.2551 66.6608C95.2878 66.7388 95.1524 66.795 95.1175 66.7193C94.6063 65.5982 93.3504 64.9706 93.1472 63.6916C93.0227 62.906 93.121 62.062 93.1341 61.2699C93.1494 60.3349 93.1385 59.3935 93.1953 58.4586C93.1996 58.3634 93.3438 58.3634 93.3482 58.4608Z" fill="black"/>
<path d="M83.4601 33.5441C83.4775 35.1586 81.7629 36.1779 80.2972 36.3208C80.1815 36.3316 80.1749 36.1649 80.271 36.1303C80.9591 35.8793 81.6558 35.7494 82.2653 35.3123C82.8463 34.8924 83.2766 34.2626 83.3574 33.5463C83.364 33.4792 83.4601 33.477 83.4601 33.5441Z" fill="#C1ADA4"/>
<path d="M79.3794 36.3102C79.15 36.36 78.9163 36.3578 78.6826 36.36C78.4445 36.3643 78.2173 36.373 77.9902 36.2929C77.9378 36.2734 77.9378 36.2042 77.9902 36.1847C78.2173 36.1068 78.4445 36.1154 78.6826 36.1176C78.9163 36.1219 79.15 36.1176 79.3794 36.1674C79.4493 36.1847 79.4493 36.2951 79.3794 36.3102Z" fill="#C1ADA4"/>
<path d="M95.0017 42.16C95.041 41.7575 95.1655 41.4112 95.4386 41.1039C95.6483 40.868 96.0851 40.5196 96.4215 40.604C96.4805 40.6191 96.5089 40.7035 96.4586 40.7446C96.3429 40.842 96.2074 40.8593 96.072 40.9221C95.906 41 95.7575 41.1061 95.6242 41.2294C95.3577 41.4761 95.1502 41.8116 95.0891 42.1687C95.0825 42.2206 94.9973 42.2098 95.0017 42.16Z" fill="#C1ADA4"/>
<path d="M74.926 26.117C74.7469 25.537 75.3432 24.3662 76.0596 24.615C76.2693 24.6886 76.1361 24.7882 75.9723 24.7449C75.7975 24.6973 75.459 25.2729 75.4065 25.3725C75.2733 25.6235 75.2515 25.9114 75.1226 26.1581C75.0964 26.21 74.9413 26.1646 74.926 26.117Z" fill="#CC6144"/>
<path d="M75.3519 25.2795C75.3584 25.0869 75.5332 24.9873 75.7145 25.0046C75.8106 25.0154 75.9154 25.0457 75.9919 25.1063C76.0377 25.141 76.1011 25.2189 76.0509 25.2708C76.0225 25.2989 75.9482 25.2686 75.9242 25.2513C75.8521 25.2016 75.8149 25.1193 75.7319 25.1561C75.6533 25.1886 75.5987 25.2622 75.5725 25.3401C75.5528 25.4007 75.3497 25.3444 75.3519 25.2795Z" fill="#CC6144"/>
<path d="M69.5853 25.2838C69.5547 25.5023 69.404 25.643 69.1768 25.6365C69.1681 25.6365 69.1026 25.6192 69.1222 25.6019C69.1768 25.5543 69.2467 25.524 69.3035 25.4742C69.3691 25.4158 69.4411 25.3357 69.4739 25.2535C69.487 25.2253 69.5919 25.2513 69.5853 25.2838Z" fill="#CC6144"/>
<path d="M84.8471 39.9914C84.7663 42.2703 84.4845 44.5405 84.1918 46.7999C84.0411 47.9599 83.9756 49.2888 83.6523 50.3795C83.6174 50.4964 83.4579 50.4444 83.4754 50.3319C83.4754 50.3297 83.4754 50.3297 83.4754 50.3276C83.4907 50.2107 83.6698 50.2605 83.6523 50.3752C83.6523 50.3773 83.6523 50.3773 83.6523 50.3795C83.5933 50.3643 83.5344 50.347 83.4754 50.3319C83.4601 50.3838 83.471 50.1393 83.4754 50.083C83.495 49.8514 83.5409 49.6177 83.5737 49.3861C83.7004 48.501 83.8227 47.6158 83.9385 46.7307C84.2312 44.4886 84.4911 42.2422 84.703 39.9914C84.7095 39.9005 84.8515 39.8962 84.8471 39.9914Z" fill="#C1ADA4"/>
<path d="M80.8891 49.9425C81.7868 50.1372 82.619 50.5419 83.4534 50.9315C84.3141 51.3319 85.2031 51.7128 85.9872 52.2495C86.044 52.2884 86.0113 52.3858 85.9392 52.3642C84.1612 51.8339 82.5404 50.7778 80.8476 50.0463C80.7842 50.0182 80.8301 49.9295 80.8891 49.9425Z" fill="#C1ADA4"/>
<path d="M65.4242 59.5125C65.6622 60.3565 65.7147 61.1854 66.0707 62.0099C66.4464 62.8778 67.0012 63.5508 67.5888 64.2823C67.6609 64.3711 67.5517 64.4814 67.4621 64.4079C66.7435 63.8235 66.2127 62.9384 65.8501 62.1008C65.5203 61.3412 65.1817 60.3522 65.3171 59.5125C65.328 59.4562 65.4111 59.4627 65.4242 59.5125Z" fill="#C1ADA4"/>
<path d="M103.525 51.8167C103.728 51.135 103.888 50.4251 103.901 49.7109C103.916 48.9773 103.724 48.3064 103.61 47.5922C103.597 47.5035 103.72 47.4321 103.77 47.5251C104.447 48.7868 104.266 50.6264 103.663 51.873C103.626 51.9509 103.503 51.8968 103.525 51.8167Z" fill="#C1ADA4"/>
<path d="M101.565 52.7603C101.734 52.3275 101.924 51.8989 102.048 51.451C102.094 51.2822 102.293 50.7476 102.19 50.6221C101.788 50.4381 101.57 50.5269 101.535 50.8883C101.509 51.0419 101.498 51.1978 101.502 51.3536C101.502 51.425 101.389 51.4445 101.373 51.3709C101.284 50.9835 101.629 49.6807 102.247 50.1611C102.516 50.371 102.376 50.8991 102.319 51.1675C102.195 51.7388 101.919 52.2733 101.688 52.8079C101.657 52.8793 101.539 52.8295 101.565 52.7603Z" fill="#C1ADA4"/>
<path d="M97.3959 55.3227C97.8612 54.5804 98.0709 53.8337 98.309 53.0048C98.3242 52.955 98.3963 52.9659 98.3985 53.0178C98.4335 53.8705 98.0141 54.7427 97.4833 55.3898C97.4418 55.4374 97.3631 55.3768 97.3959 55.3227Z" fill="#C1ADA4"/>
<path d="M93.6606 56.766C93.0097 56.7075 92.1469 56.2271 92.0421 55.5194C92.0333 55.4588 92.1076 55.3939 92.16 55.4523C92.3632 55.6861 92.5052 55.9522 92.7476 56.1557C93.0141 56.3786 93.3461 56.5366 93.6803 56.6296C93.7546 56.6469 93.7437 56.7746 93.6606 56.766Z" fill="#C1ADA4"/>
<path d="M93.6432 56.0455C93.2195 55.9005 92.6952 55.5282 92.621 55.0543C92.6122 54.998 92.6843 54.9352 92.7324 54.9915C92.8743 55.1582 92.977 55.3508 93.1365 55.5044C93.3025 55.6667 93.5012 55.7923 93.7131 55.8853C93.8027 55.9264 93.7393 56.0779 93.6432 56.0455Z" fill="#C1ADA4"/>
<path d="M69.7315 30.7765C69.5349 30.6964 69.3995 30.8241 69.2182 30.8739C69.1985 30.8782 69.1439 30.8739 69.1374 30.8479C69.0981 30.7029 69.2968 30.6531 69.4104 30.6423C69.5524 30.6293 69.7075 30.6553 69.8232 30.7462C69.8866 30.796 69.7555 30.7873 69.7315 30.7765Z" fill="#CC6144"/>
<path d="M6.47191 21.0747H29.7347C31.7115 21.0747 33.3999 22.4879 33.732 24.4184L35.7415 36.1287C36.1631 38.5807 34.254 40.8185 31.7442 40.8185H31.6263L32.5328 45.6187L28.0593 40.8185H8.48366C6.50687 40.8185 4.81839 39.4053 4.48638 37.4749L2.47684 25.7645C2.05308 23.3125 3.96215 21.0747 6.47191 21.0747Z" fill="#699DEE"/>
<path d="M19.8202 25.4894C17.341 25.6214 14.8553 25.6538 12.3739 25.708C11.1507 25.7339 9.92747 25.7621 8.70427 25.788C7.4614 25.8162 6.16611 25.946 4.92762 25.8335C4.79874 25.8227 4.74413 25.6106 4.89485 25.5911C6.07 25.4309 7.30195 25.4959 8.49021 25.4677C9.74837 25.4396 11.0087 25.4115 12.2669 25.3833C14.7832 25.3271 17.3039 25.2448 19.8202 25.2686C19.9665 25.2665 19.9665 25.4829 19.8202 25.4894Z" fill="white"/>
<path d="M20.4905 28.4761C18.0682 28.6146 15.6436 28.6817 13.219 28.6709C12.0242 28.6666 10.8272 28.6428 9.63239 28.5995C8.46816 28.5584 7.26898 28.5692 6.11567 28.3917C5.95185 28.3658 5.99772 28.1169 6.1528 28.1147C7.34325 28.0844 8.54899 28.2208 9.73943 28.2619C10.9342 28.303 12.129 28.3246 13.326 28.329C15.7157 28.3355 18.1031 28.2684 20.4884 28.1299C20.7177 28.1169 20.7155 28.4653 20.4905 28.4761Z" fill="white"/>
<path d="M20.4734 30.861C18.2847 31.0579 16.0852 31.2722 13.8878 31.3544C11.6947 31.4367 9.48421 31.3068 7.29335 31.2311C7.00502 31.2202 7.00284 30.7722 7.29335 30.7852C9.48639 30.8696 11.6904 31.032 13.8878 30.9605C16.0852 30.8891 18.276 30.6554 20.4734 30.5753C20.6613 30.5688 20.6569 30.8437 20.4734 30.861Z" fill="white"/>
<path d="M31.6221 33.073C25.3837 33.5859 19.0907 33.6184 12.8349 33.6725C11.3452 33.6855 9.84459 33.7158 8.35709 33.6509C8.11244 33.64 8.11026 33.2786 8.35709 33.2743C11.2469 33.2072 14.1411 33.2678 17.0309 33.2397C20.4057 33.2072 23.7804 33.1488 27.153 33.0384C28.6427 32.9886 30.1345 32.9518 31.6242 32.8653C31.7575 32.8566 31.7553 33.0622 31.6221 33.073Z" fill="white"/>
<path d="M31.8862 35.1763C25.7177 35.6849 19.5012 35.7758 13.3153 35.8537C11.843 35.8732 10.3599 35.9078 8.88768 35.8429C8.64303 35.832 8.64085 35.4706 8.88768 35.4663C11.7753 35.3992 14.6695 35.4446 17.5593 35.4014C20.862 35.3516 24.1668 35.2758 27.4673 35.1525C28.9417 35.0984 30.4161 35.0551 31.8883 34.9685C32.0216 34.9599 32.0194 35.1655 31.8862 35.1763Z" fill="white"/>
<path d="M30.7155 24.3016C31.006 25.3534 31.0322 26.4398 31.0365 27.5241C31.0387 28.0738 31.0387 28.6256 31.0802 29.1753C31.1239 29.751 31.3314 30.305 31.362 30.8742C31.3729 31.0755 31.0868 31.1361 30.9885 30.9738C30.757 30.5885 30.7264 30.0951 30.6739 29.6536C30.6041 29.0758 30.5953 28.4958 30.5953 27.9136C30.5931 26.7363 30.6215 25.5633 30.283 24.4206C30.2 24.1436 30.639 24.0246 30.7155 24.3016Z" fill="white"/>
<path d="M30.2785 24.4487C27.4717 24.5028 24.6801 24.5937 21.8886 24.9032C21.9738 24.7928 22.059 24.6803 22.1441 24.5699C22.4434 26.6929 22.6356 28.8095 22.6312 30.9542C22.6312 31.3741 21.9694 31.3762 21.9716 30.9542C21.9869 28.8463 21.8951 26.7297 21.6221 24.6391C21.6024 24.4876 21.7597 24.3881 21.8886 24.3751C24.667 24.0959 27.4869 23.9488 30.2785 24.1154C30.4925 24.1284 30.4969 24.4444 30.2785 24.4487Z" fill="white"/>
<path d="M30.8747 31.2722C29.4921 31.1164 28.1028 31.0602 26.7136 31.1208C26.054 31.1489 25.3943 31.203 24.7368 31.2787C24.3546 31.3242 23.9723 31.3805 23.5923 31.4367C23.2668 31.4843 23.0221 31.5687 22.712 31.4497C22.5525 31.3891 22.4499 31.1727 22.6028 31.0407C23.0505 30.649 23.8522 30.6793 24.4267 30.6208C25.1518 30.5473 25.8814 30.504 26.6088 30.4888C28.0613 30.4607 29.5074 30.5602 30.9446 30.7593C31.2373 30.8005 31.1718 31.3047 30.8747 31.2722Z" fill="white"/>
<path d="M29.5794 25.6175C29.6843 26.7342 29.7673 27.8552 29.8153 28.9763C29.8262 29.2511 29.3785 29.2533 29.3828 28.9763C29.4047 27.8531 29.3785 26.7385 29.2933 25.6175C29.2802 25.4357 29.562 25.4378 29.5794 25.6175Z" fill="white"/>
<path d="M29.5515 29.1905C27.3431 29.329 25.1064 29.4415 22.8937 29.4458C22.6098 29.4458 22.6141 29.0281 22.8937 29.013C25.102 28.8853 27.3388 28.8658 29.5515 28.8702C29.7612 28.8702 29.759 29.1775 29.5515 29.1905Z" fill="white"/>
<path d="M28.5596 28.2575C28.4722 27.9957 28.3826 27.7316 28.2953 27.4698C28.221 27.249 28.1555 26.8097 27.9938 26.6409C27.5439 26.1712 26.9061 27.6104 26.7684 27.8117C26.5063 28.1969 26.0389 28.4891 25.6938 28.0065C25.4622 27.684 25.4513 27.2468 25.2788 26.8984C25.2678 26.7145 25.1674 26.6041 24.9773 26.5673C24.8965 26.669 24.8157 26.7686 24.737 26.8703C24.606 27.0348 24.4793 27.236 24.3067 27.3659C24.1364 27.4936 23.9398 27.5412 23.7366 27.4568C23.3959 27.3139 23.3893 26.84 23.0726 26.6971C22.3824 26.3877 23.6558 25.6605 23.5794 26.4093C23.5532 26.6625 23.8044 27.1083 24.0905 26.9612C24.2674 26.8703 24.4312 26.5759 24.5667 26.4309C24.7349 26.2492 24.9511 25.9721 25.2416 26.0847C25.4513 26.1669 25.495 26.418 25.5649 26.6019C25.6654 26.8703 25.7768 27.1365 25.8838 27.4005C25.8991 27.6386 26.0236 27.7576 26.2595 27.7598C26.3469 27.6537 26.4277 27.5433 26.4998 27.4265C26.7903 27.0066 27.1769 26.0674 27.8475 26.1777C28.1227 26.2232 28.2494 26.4223 28.3586 26.656C28.5814 27.1321 28.7081 27.6775 28.8741 28.1753C28.9375 28.3679 28.6251 28.4523 28.5596 28.2575Z" fill="white"/>
<path d="M40.5014 1.86108H55.8243C57.1261 1.86108 58.2379 2.79168 58.4563 4.06422L59.78 11.7774C60.0574 13.3918 58.8015 14.8678 57.1479 14.8678H57.0693L58.6027 17.0796L54.719 14.8678H41.8251C40.5232 14.8678 39.4092 13.9372 39.193 12.6647L37.8693 4.95153C37.5919 3.33489 38.8479 1.86108 40.5014 1.86108Z" fill="#8434DC"/>
<path d="M56.2174 4.55757C53.4324 4.70041 50.6408 4.75451 47.8515 4.82809C46.4754 4.86488 45.0993 4.90167 43.7232 4.93847C42.323 4.97526 40.8836 5.10943 39.4856 5.01854C39.3458 5.00988 39.3502 4.8216 39.4856 4.80645C40.8421 4.64414 42.2488 4.69824 43.6139 4.66145C45.0272 4.6225 46.4382 4.58354 47.8515 4.54458C50.6387 4.46884 53.428 4.37145 56.2174 4.36279C56.344 4.36279 56.3419 4.55108 56.2174 4.55757Z" fill="white"/>
<path d="M56.9229 6.52687C54.2405 6.65455 51.5582 6.73679 48.8737 6.76926C47.5675 6.78441 46.2613 6.78873 44.9551 6.78224C43.5833 6.77358 42.1876 6.8147 40.8202 6.69567C40.6651 6.68269 40.6607 6.45761 40.8202 6.45112C42.157 6.39702 43.5069 6.47709 44.8459 6.48575C46.187 6.4944 47.5304 6.49008 48.8715 6.47276C51.556 6.4403 54.2384 6.35806 56.9207 6.22821C57.1173 6.21956 57.1173 6.51821 56.9229 6.52687Z" fill="white"/>
<path d="M57.349 8.30603C52.1416 8.70641 46.8927 8.74753 41.6744 8.56573C41.4844 8.55924 41.4822 8.26491 41.6744 8.27141C46.9058 8.46185 52.122 8.36447 57.349 8.11775C57.4713 8.11342 57.4691 8.29738 57.349 8.30603Z" fill="white"/>
<path d="M57.7661 10.2255C54.186 10.5372 50.5404 10.7363 46.9472 10.6086C46.7856 10.6021 46.7856 10.3619 46.9472 10.3597C50.5579 10.3013 54.1576 10.2796 57.7661 10.087C57.8556 10.0827 57.8534 10.2169 57.7661 10.2255Z" fill="white"/>
<path d="M95.028 6.17871H116.002C117.784 6.17871 119.307 7.45341 119.606 9.19341L121.417 19.7524C121.797 21.9642 120.075 23.9812 117.812 23.9812H100.085L96.9917 27.8421L96.8672 23.9812H96.8388C95.0564 23.9812 93.534 22.7065 93.2347 20.9665L91.4239 10.4075C91.0439 8.19573 92.7651 6.17871 95.028 6.17871Z" fill="#FF6652"/>
<path d="M108.56 10.0786C106.074 10.1847 103.586 10.228 101.098 10.2864C99.8731 10.3145 98.6477 10.3427 97.4223 10.3708C96.1663 10.3989 94.8907 10.4963 93.6369 10.4336C93.5342 10.4292 93.5364 10.2864 93.6369 10.2756C94.8514 10.1587 96.0942 10.1933 97.3131 10.1652C98.5756 10.1349 99.8359 10.1046 101.098 10.0765C103.584 10.018 106.072 9.94445 108.56 9.93579C108.652 9.93579 108.652 10.0743 108.56 10.0786Z" fill="white"/>
<path d="M109.221 12.7532C106.832 12.8852 104.438 12.9545 102.044 12.9545C99.6673 12.9545 97.2231 13.0021 94.8575 12.7402C94.7439 12.7273 94.7374 12.5606 94.8575 12.5606C97.2515 12.5541 99.6477 12.7381 102.044 12.7359C104.438 12.7337 106.832 12.6645 109.221 12.5325C109.363 12.5238 109.363 12.7446 109.221 12.7532Z" fill="white"/>
<path d="M118.088 14.9587C110.956 15.4717 103.776 15.5452 96.6335 15.2899C96.4587 15.2834 96.4587 15.015 96.6335 15.0215C103.791 15.2769 110.936 15.1622 118.088 14.7878C118.201 14.7813 118.199 14.9501 118.088 14.9587Z" fill="white"/>
<path d="M118.66 17.5968C113.754 17.9972 108.774 18.2547 103.85 18.0968C103.704 18.0924 103.702 17.8717 103.85 17.8695C108.796 17.8068 113.721 17.7635 118.66 17.4713C118.741 17.467 118.741 17.5903 118.66 17.5968Z" fill="white"/>
<path d="M117.347 9.00076C117.496 10.0179 117.714 11.0676 117.784 12.0934C117.826 12.708 117.531 13.0045 116.928 13.104C115.888 13.2793 114.807 13.314 113.756 13.407C113.127 13.4633 111.98 13.7187 111.461 13.2036C111.207 12.9526 111.27 12.5695 111.288 12.2492C111.312 11.7926 111.364 11.3381 111.364 10.8814C111.364 10.3079 111.196 9.8383 111.067 9.29292C111.008 9.04404 110.995 8.79516 111.166 8.58091C111.576 8.06583 112.605 8.25411 113.171 8.25628C114.322 8.26061 115.473 8.29091 116.622 8.31255C116.98 8.31904 116.965 8.89471 116.622 8.85359C115.13 8.68046 113.595 8.57225 112.092 8.64367C111.762 8.65882 111.423 8.63934 111.43 9.19337C111.432 9.32106 111.528 9.47688 111.563 9.59807C111.651 9.89024 111.692 10.1911 111.705 10.4962C111.72 10.8208 111.696 11.1455 111.668 11.4679C111.64 11.8034 111.528 12.2102 111.574 12.5435C111.655 13.1365 112.135 13.2014 112.644 13.1863C113.016 13.1755 113.385 13.13 113.756 13.0997C114.512 13.037 115.268 12.9807 116.024 12.9201C116.332 12.8963 116.919 12.9612 117.192 12.8054C117.393 12.6907 117.561 12.3098 117.574 12.0934C117.587 11.8813 117.5 11.561 117.47 11.3424C117.365 10.5806 117.234 9.82315 117.122 9.06352C117.1 8.91635 117.325 8.85359 117.347 9.00076Z" fill="white"/>
<path d="M115.167 11.4138C115.073 10.916 115.03 10.4096 114.971 9.90749C114.997 9.95294 115.023 9.99838 115.049 10.046C114.958 9.9854 114.069 11.0458 113.968 11.1584C113.942 11.0588 113.916 10.9593 113.889 10.8597C114.276 11.0155 114.665 11.1649 115.049 11.325C115.263 11.4138 115.174 11.7665 114.951 11.6778C114.562 11.5241 114.18 11.3618 113.793 11.2038C113.667 11.1519 113.616 11.0134 113.715 10.9052C113.961 10.6303 114.211 10.362 114.475 10.1044C114.623 9.95943 114.848 9.65861 115.097 9.71055C115.34 9.76249 115.305 10.0244 115.324 10.2148C115.364 10.6022 115.41 10.9917 115.423 11.3813C115.423 11.5198 115.193 11.5566 115.167 11.4138Z" fill="white"/>
<path d="M24.9923 52.3816C24.7112 52.3816 24.4834 52.1558 24.4834 51.8773C24.4834 51.5988 24.7112 51.373 24.9923 51.373C25.2734 51.373 25.5013 51.5988 25.5013 51.8773C25.5013 52.1558 25.2734 52.3816 24.9923 52.3816Z" fill="#2D2442"/>
<path d="M23.3804 52.3816C23.0993 52.3816 22.8715 52.1558 22.8715 51.8773C22.8715 51.5988 23.0993 51.373 23.3804 51.373C23.6615 51.373 23.8893 51.5988 23.8893 51.8773C23.8893 52.1558 23.6615 52.3816 23.3804 52.3816Z" fill="#2D2442"/>
<path d="M21.7705 52.3816C21.4894 52.3816 21.2615 52.1558 21.2615 51.8773C21.2615 51.5988 21.4894 51.373 21.7705 51.373C22.0516 51.373 22.2794 51.5988 22.2794 51.8773C22.2794 52.1558 22.0516 52.3816 21.7705 52.3816Z" fill="#2D2442"/>
<path d="M23.0266 14.437C22.7455 14.437 22.5177 14.2112 22.5177 13.9327C22.5177 13.6542 22.7455 13.4285 23.0266 13.4285C23.3077 13.4285 23.5355 13.6542 23.5355 13.9327C23.5355 14.2112 23.3077 14.437 23.0266 14.437Z" fill="#2D2442"/>
<path d="M21.4146 14.437C21.1336 14.437 20.9057 14.2112 20.9057 13.9327C20.9057 13.6542 21.1336 13.4285 21.4146 13.4285C21.6957 13.4285 21.9236 13.6542 21.9236 13.9327C21.9236 14.2112 21.6957 14.437 21.4146 14.437Z" fill="#2D2442"/>
<path d="M19.8047 14.437C19.5236 14.437 19.2958 14.2112 19.2958 13.9327C19.2958 13.6542 19.5236 13.4285 19.8047 13.4285C20.0858 13.4285 20.3137 13.6542 20.3137 13.9327C20.3137 14.2112 20.0858 14.437 19.8047 14.437Z" fill="#2D2442"/>
<path d="M114.466 33.7695C114.185 33.7695 113.957 33.5437 113.957 33.2652C113.957 32.9867 114.185 32.761 114.466 32.761C114.747 32.761 114.975 32.9867 114.975 33.2652C114.975 33.5437 114.747 33.7695 114.466 33.7695Z" fill="#2D2442"/>
<path d="M112.856 33.7695C112.575 33.7695 112.347 33.5437 112.347 33.2652C112.347 32.9867 112.575 32.761 112.856 32.761C113.137 32.761 113.365 32.9867 113.365 33.2652C113.365 33.5437 113.137 33.7695 112.856 33.7695Z" fill="#2D2442"/>
<path d="M111.244 33.7695C110.963 33.7695 110.735 33.5437 110.735 33.2652C110.735 32.9867 110.963 32.761 111.244 32.761C111.525 32.761 111.753 32.9867 111.753 33.2652C111.753 33.5437 111.525 33.7695 111.244 33.7695Z" fill="#2D2442"/>
</svg>
