<svg width="128" height="84" viewBox="0 0 128 84" fill="none" xmlns="http://www.w3.org/2000/svg">
<path d="M4.30083 53.4917C7.38944 48.6267 11.6204 44.7506 16.0131 41.262C19.6936 38.336 23.7542 35.3235 25.2723 30.6553C26.1023 28.1103 26.0783 25.2968 27.011 22.795C28.2539 19.46 32.1048 15.4195 35.3856 13.963C40.4051 11.7339 46.4709 15.1144 51.6827 13.3765C53.8364 12.658 54.4043 11.2881 55.8875 9.84891C57.4755 8.30801 59.3845 6.96622 61.2193 5.73048C64.8169 3.3066 68.8011 1.35884 73.091 0.512643C80.6465 -0.978476 88.7066 1.15108 94.9428 5.8019C98.691 8.59802 101.791 12.2663 104.108 16.3891C106.323 20.3322 107.302 24.7038 109.353 28.6859C113.197 36.148 121.176 40.2838 124.951 47.7891C127.727 53.3143 127.841 60.0665 126.379 66.1587C124.918 72.2487 122.011 77.8041 118.957 83.1561C118.942 83.1799 118.929 83.2016 118.915 83.2232H113.874C94.6348 83.1583 11.7427 82.9029 9.77251 83.2882H5.94125C3.14753 80.8773 0.598438 74.2181 0.0894963 70.197C-0.653166 64.3451 1.21442 58.3568 4.30083 53.4917Z" fill="#EDDCFF"/>
</svg>
